<svg xmlns="http://www.w3.org/2000/svg" width="21.453" height="25.353" viewBox="0 0 21.453 25.353"><g transform="translate(0 0)"><path d="M44.113,179.141A1.514,1.514,0,0,0,43,179.6a1.5,1.5,0,0,0-.457,1.1v6.552a1.561,1.561,0,0,0,1.569,1.569,1.49,1.49,0,0,0,1.1-.457,1.527,1.527,0,0,0,.449-1.112v-6.552a1.56,1.56,0,0,0-1.554-1.554Z" transform="translate(-42.544 -170.929)" fill="#b2b2b2"/><path d="M133.164,2.331l1.082-2a.2.2,0,0,0-.076-.3.211.211,0,0,0-.3.091l-1.1,2.012a7.642,7.642,0,0,0-6.125,0l-1.1-2.012a.211.211,0,0,0-.3-.091.2.2,0,0,0-.076.3l1.082,2a6.681,6.681,0,0,0-2.621,2.339,5.908,5.908,0,0,0-.975,3.284h14.093a5.909,5.909,0,0,0-.975-3.284A6.709,6.709,0,0,0,133.164,2.331Zm-6.255,2.9a.571.571,0,0,1-.419.176.545.545,0,0,1-.411-.176.607.607,0,0,1,0-.838.547.547,0,0,1,.411-.175.592.592,0,0,1,.419,1.013Zm6.422,0a.546.546,0,0,1-.411.176.594.594,0,0,1,0-1.188.548.548,0,0,1,.411.175.607.607,0,0,1,0,.838Z" transform="translate(-118.979 0)" fill="#b2b2b2"/><path d="M123.971,195.6a1.664,1.664,0,0,0,1.676,1.676h1.128l.015,3.459a1.514,1.514,0,0,0,.457,1.112,1.5,1.5,0,0,0,1.1.457,1.561,1.561,0,0,0,1.569-1.57v-3.459h2.1v3.459a1.569,1.569,0,1,0,3.138,0v-3.459H136.3a1.664,1.664,0,0,0,1.661-1.676V185.45H123.971Z" transform="translate(-120.238 -176.948)" fill="#b2b2b2"/><path d="M443.93,179.141a1.51,1.51,0,0,0-1.1.449,1.49,1.49,0,0,0-.457,1.1v6.552a1.513,1.513,0,0,0,.457,1.112,1.5,1.5,0,0,0,1.1.457,1.56,1.56,0,0,0,1.569-1.569v-6.552a1.49,1.49,0,0,0-.457-1.1A1.528,1.528,0,0,0,443.93,179.141Z" transform="translate(-424.046 -170.929)" fill="#b2b2b2"/></g></svg>