<svg xmlns="http://www.w3.org/2000/svg" width="21.061" height="25.004" viewBox="0 0 21.061 25.004"><path d="M37.39,23.485A13.594,13.594,0,0,1,36.046,25.9a12.28,12.28,0,0,1-1.732,2.093,3.359,3.359,0,0,1-2.226.98,5.578,5.578,0,0,1-2.056-.491,5.9,5.9,0,0,0-2.213-.489,6.1,6.1,0,0,0-2.276.489A6.123,6.123,0,0,1,23.577,29,3.163,3.163,0,0,1,21.3,27.994a12.9,12.9,0,0,1-1.811-2.167,14.987,14.987,0,0,1-1.915-3.8,13.931,13.931,0,0,1-.8-4.534,8.28,8.28,0,0,1,1.087-4.332,6.378,6.378,0,0,1,2.277-2.3,6.126,6.126,0,0,1,3.079-.869,7.249,7.249,0,0,1,2.381.554,7.655,7.655,0,0,0,1.889.555,11.3,11.3,0,0,0,2.094-.654,6.923,6.923,0,0,1,2.847-.505,6.045,6.045,0,0,1,4.735,2.493,5.267,5.267,0,0,0-2.794,4.785A5.279,5.279,0,0,0,36.1,21.19a5.7,5.7,0,0,0,1.732,1.136q-.208.6-.441,1.159ZM32.565,4.5A5.334,5.334,0,0,1,31.2,8a4.659,4.659,0,0,1-3.869,1.91,3.892,3.892,0,0,1-.029-.474A5.48,5.48,0,0,1,28.75,5.9a5.585,5.585,0,0,1,1.767-1.327A5.269,5.269,0,0,1,32.539,4a4.543,4.543,0,0,1,.026.5Z" transform="translate(-16.77 -3.999)" fill="#b2b2b2"/></svg>