<svg xmlns="http://www.w3.org/2000/svg" xmlns:xlink="http://www.w3.org/1999/xlink" width="361.077" height="270.155" viewBox="0 0 361.077 270.155"><defs><linearGradient id="a" x1="0.5" y1="1" x2="0.5" gradientUnits="objectBoundingBox"><stop offset="0" stop-color="gray" stop-opacity="0.251"/><stop offset="0.54" stop-color="gray" stop-opacity="0.122"/><stop offset="1" stop-color="gray" stop-opacity="0.102"/></linearGradient></defs><g transform="translate(0.01 -0.005)"><ellipse cx="114.806" cy="6.214" rx="114.806" ry="6.214" transform="translate(73.018 257.732)" fill="#6c63ff" opacity="0.1"/><path d="M677.558,651.947l-.987,1.448-6.105,9.084-5.184,1.563-3.867-3.785.188-2.5.964-12.97S638.64,630.712,636.5,628.079s-10.367-5.019-10.367-5.019-12.589-5.842-17.279-16.044,7.817-11.766,7.817-11.766l46.982,44.931Z" transform="translate(-424.704 -412.363)" fill="#ffc1c7"/><path d="M766.32,774.45l-14.893,13.905a55.8,55.8,0,0,1-16.209.494c-4.891-.737-3.949-3.42-2.663-5.266l.023-.033a5.41,5.41,0,0,1,3.173-2.087,12.821,12.821,0,0,0,8.518-6.112l4.608,3.949,7.981-9.3,5.9,2.771Z" transform="translate(-507.706 -529.599)" fill="#575988"/><line y1="12.944" x2="14.87" transform="translate(240.184 243.34)" fill="#fff"/><path d="M679.757,655.555l-3.505-1.646.329-.5.987-1.448-13.915-11.766L616.672,595.27s-12.506,1.557-7.817,11.759,17.279,16.044,17.279,16.044,8.228,2.386,10.367,5.019,26.083,16.7,26.083,16.7l-.964,12.971-.046.619-.306-.26a12.822,12.822,0,0,1-8.518,6.112,5.41,5.41,0,0,0-3.173,2.087l-.023.033c-1.317,1.843-2.228,4.525,2.663,5.266a55.8,55.8,0,0,0,16.209-.494l14.893-13.905Z" transform="translate(-424.704 -412.376)" opacity="0.1"/><path d="M63.3,469.55c5.713,24.421,17.809,45.53,36.92,55.769,39.728,21.268,129.317,10.3,196.177-2.3a153.092,153.092,0,0,0,87.065-49.772Z" transform="translate(-59.406 -328.033)" fill="#6c63ff" opacity="0.1"/><path d="M432.75,66.14H396.064a3.173,3.173,0,0,1,0-6.342h6.342a3.169,3.169,0,0,1,0-6.339h-4.529a3.173,3.173,0,0,1,0-6.342h19.148A50.662,50.662,0,0,0,402.087,43c-52.211-6.7-70.852-2.271-77.428,2.3a73.118,73.118,0,0,1-26.836,11.763c-32.214,6.645-92.459,14.639-147.063-2.561-27.139-8.557-47.307,5.9-59.4,30.042H439.119a56.665,56.665,0,0,0-4.308-19.168,3.163,3.163,0,0,1-2.06.76Z" transform="translate(-78.231 -39.57)" fill="#6c63ff" opacity="0.1"/><path d="M52.23,314.67a161.652,161.652,0,0,0,1.422,42.608l322.1,11.779a151.249,151.249,0,0,0,22.38-34.13Zm127.395,30.387h-6.342a3.173,3.173,0,1,1,0,6.342H136.6a3.173,3.173,0,0,1,0-6.342h6.342a3.169,3.169,0,1,1,0-6.339H138.41a3.173,3.173,0,0,1,0-6.342H175.1a3.173,3.173,0,0,1,0,6.342h4.529a3.169,3.169,0,1,1,0,6.339Z" transform="translate(-51.45 -224.127)" fill="#6c63ff" opacity="0.1"/><path d="M414.071,176.86,62.416,185.417A140.243,140.243,0,0,0,54,221.729H407.91a150.432,150.432,0,0,0,5.111-23.147A109.672,109.672,0,0,0,414.071,176.86ZM125.392,204.881H119.05a3.173,3.173,0,1,1,0,6.342H82.363a3.173,3.173,0,0,1,0-6.342h6.342a3.169,3.169,0,1,1,0-6.339H84.177a3.173,3.173,0,0,1,0-6.342h36.687a3.173,3.173,0,0,1,0,6.342h4.529a3.169,3.169,0,1,1,0,6.339Z" transform="translate(-53.167 -131.672)" fill="#6c63ff" opacity="0.1"/><g transform="translate(260.183 89.747)" opacity="0.1"><path d="M848.76,413.887s9.281-22.874,26.613-31.358a37.385,37.385,0,0,0,16.973-16.482A62.915,62.915,0,0,0,896.6,355.36" transform="translate(-846.541 -341.171)" fill="none" stroke="#535461" stroke-miterlimit="10" stroke-width="2"/><path d="M1004.467,321.027c-1.807,2.271-11.157,5.595-11.157,5.595s1.126-9.857,2.932-12.128a5.266,5.266,0,1,1,8.228,6.543Z" transform="translate(-943.517 -312.249)" fill="#6c63ff"/><path d="M992.181,372.46c-2.751.925-12.4-1.376-12.4-1.376s6.3-7.662,9.054-8.587a5.266,5.266,0,1,1,3.347,9.962Z" transform="translate(-934.44 -345.696)" fill="#6c63ff"/><path d="M944.192,437.063c-2.84-.592-10.012-7.448-10.012-7.448s9.311-3.433,12.151-2.844a5.266,5.266,0,0,1-2.139,10.291Z" transform="translate(-903.848 -389.034)" fill="#6c63ff"/><path d="M890.917,476.637c-2.9-.1-11.127-5.648-11.127-5.648s8.6-4.957,11.5-4.854a5.266,5.266,0,1,1-.369,10.5Z" transform="translate(-867.359 -415.486)" fill="#6c63ff"/><path d="M952.459,358.461c.369,2.88,6.655,10.555,6.655,10.555s4.14-9.018,3.768-11.894a5.266,5.266,0,0,0-10.423,1.34Z" transform="translate(-916.104 -339.5)" fill="#6c63ff"/><path d="M892.709,402.68c1.214,2.633,9.512,8.08,9.512,8.08s1.247-9.841.033-12.477a5.266,5.266,0,0,0-9.544,4.4Z" transform="translate(-875.792 -368.122)" fill="#6c63ff"/><path d="M842.124,458.318c.754,2.8,8.007,9.571,8.007,9.571s2.9-9.488,2.146-12.293a5.266,5.266,0,0,0-10.153,2.722Z" transform="translate(-842.018 -406.008)" fill="#6c63ff"/><path d="M1004.467,321.027c-1.807,2.271-11.157,5.595-11.157,5.595s1.126-9.857,2.932-12.128a5.266,5.266,0,1,1,8.228,6.543Z" transform="translate(-943.517 -312.249)" opacity="0.25"/><path d="M992.181,372.46c-2.751.925-12.4-1.376-12.4-1.376s6.3-7.662,9.054-8.587a5.266,5.266,0,1,1,3.347,9.962Z" transform="translate(-934.44 -345.696)" opacity="0.25"/><path d="M944.192,437.063c-2.84-.592-10.012-7.448-10.012-7.448s9.311-3.433,12.151-2.844a5.266,5.266,0,0,1-2.139,10.291Z" transform="translate(-903.848 -389.034)" opacity="0.25"/><path d="M890.917,476.637c-2.9-.1-11.127-5.648-11.127-5.648s8.6-4.957,11.5-4.854a5.266,5.266,0,1,1-.369,10.5Z" transform="translate(-867.359 -415.486)" opacity="0.25"/><path d="M952.459,358.461c.369,2.88,6.655,10.555,6.655,10.555s4.14-9.018,3.768-11.894a5.266,5.266,0,0,0-10.423,1.34Z" transform="translate(-916.104 -339.5)" opacity="0.25"/><path d="M892.709,402.68c1.214,2.633,9.512,8.08,9.512,8.08s1.247-9.841.033-12.477a5.266,5.266,0,0,0-9.544,4.4Z" transform="translate(-875.792 -368.122)" opacity="0.25"/><path d="M842.124,458.318c.754,2.8,8.007,9.571,8.007,9.571s2.9-9.488,2.146-12.293a5.266,5.266,0,0,0-10.153,2.722Z" transform="translate(-842.018 -406.008)" opacity="0.25"/></g><g transform="translate(238.149 39.393)" opacity="0.1"><path d="M803.86,277.089s1.172-24.658,14.708-38.411A37.4,37.4,0,0,0,829.116,217.5a62.962,62.962,0,0,0,.461-11.5" transform="translate(-794.384 -190.615)" fill="none" stroke="#535461" stroke-miterlimit="10" stroke-width="2"/><path d="M887.067,165.917c-.951,2.745-8.672,8.972-8.672,8.972s-2.205-9.673-1.257-12.414a5.266,5.266,0,0,1,9.929,3.443Z" transform="translate(-843.386 -159.253)" fill="#6c63ff"/><path d="M891.938,215.544c-2.3,1.784-12.158,2.817-12.158,2.817s3.406-9.321,5.694-11.1a5.266,5.266,0,0,1,6.464,8.287Z" transform="translate(-845.317 -190.844)" fill="#6c63ff"/><path d="M863.987,291.521c-2.877.385-11.917-3.706-11.917-3.706s7.645-6.326,10.532-6.711a5.266,5.266,0,0,1,1.4,10.417Z" transform="translate(-826.727 -240.993)" fill="#6c63ff"/><path d="M828.168,346.119c-2.768.869-12.368-1.646-12.368-1.646s6.464-7.524,9.235-8.389a5.266,5.266,0,1,1,3.133,10.028Z" transform="translate(-802.394 -277.644)" fill="#6c63ff"/><path d="M846.7,218.563c1.316,2.593,9.781,7.751,9.781,7.751s.912-9.874-.392-12.47a5.266,5.266,0,0,0-9.39,4.72Z" transform="translate(-822.845 -194.133)" fill="#6c63ff"/><path d="M804.977,280.073c2.021,2.083,11.651,4.469,11.651,4.469s-2.083-9.7-4.1-11.786a5.266,5.266,0,0,0-7.547,7.316Z" transform="translate(-794.287 -234.482)" fill="#6c63ff"/><path d="M775.786,349.436c1.646,2.4,10.729,6.375,10.729,6.375s-.418-9.913-2.054-12.309a5.266,5.266,0,0,0-8.676,5.924Z" transform="translate(-775.068 -281.524)" fill="#6c63ff"/></g><path d="M468.215,125.049s-7.843-.471-6.911,5.026a1.339,1.339,0,0,0,.7,1.412s0-.408.8-.27a3.508,3.508,0,0,0,.852.043,1.781,1.781,0,0,0,1.043-.431h0s2.205-.912,3.061-4.515c0,0,.635-.787.609-.987l-1.317.566a2.376,2.376,0,0,1,.1,1.748s-.043-1.715-.3-1.675c-.053,0-.688.329-.688.329a3.906,3.906,0,0,1,.191,2.873s.224-2.05-.434-2.751l-.931.543a4.12,4.12,0,0,1,.293,3.12s.158-2.149-.487-2.988l-.846.658a4,4,0,0,1,.329,2.857s-.066-2.5-.517-2.692a5.153,5.153,0,0,0-.849.918s.583,1.231.221,1.879c0,0-.221-1.669-.4-1.675a5.53,5.53,0,0,0-.813,1.863,4.023,4.023,0,0,1,.635-1.975,2.228,2.228,0,0,0-1.129.583s.115-.78,1.316-.849a5.123,5.123,0,0,1,.77-.889,4.765,4.765,0,0,0-1.906.221,2.14,2.14,0,0,1,2.123-.4l.836-.678a6.947,6.947,0,0,0-2.228.02,2.682,2.682,0,0,1,2.452-.174l.908-.543a8.146,8.146,0,0,0-2.129-.184,3.28,3.28,0,0,1,2.4.036l.658-.29s-.987-.191-1.264-.224-.3-.109-.3-.109a3.383,3.383,0,0,1,1.833.2A7.676,7.676,0,0,0,468.215,125.049Z" transform="translate(-326.368 -96.907)" fill="#6c63ff" opacity="0.1"/><path d="M418.558,206.213s-2.679,7.389,2.854,8.063a1.343,1.343,0,0,0,1.553-.27s-.388-.128-.03-.846a3.522,3.522,0,0,0,.27-.806,1.781,1.781,0,0,0-.115-1.122h0s-.247-2.373-3.459-4.216c0,0-.576-.833-.777-.866l.168,1.428a2.382,2.382,0,0,1,1.7.4s-1.646-.444-1.692-.191c0,.053.122.754.122.754a3.924,3.924,0,0,1,2.811.632s-1.9-.793-2.761-.365l.257,1.05a4.106,4.106,0,0,1,3.074.606s-2.018-.764-3-.382l.392.987a4.083,4.083,0,0,1,2.834.49s-2.419-.658-2.728-.267a5.078,5.078,0,0,0,.642,1.076s1.343-.211,1.863.329c0,0-1.662-.26-1.721-.086a5.64,5.64,0,0,0,1.553,1.316,4.006,4.006,0,0,1-1.7-1.165A2.219,2.219,0,0,0,420.9,214s-.714-.329-.441-1.494a5.3,5.3,0,0,1-.635-.987,4.852,4.852,0,0,0-.329,1.892,2.144,2.144,0,0,1,.217-2.152l-.415-.987a6.662,6.662,0,0,0-.612,2.139,2.706,2.706,0,0,1,.527-2.4l-.263-1.024a8.288,8.288,0,0,0-.78,1.975,3.264,3.264,0,0,1,.717-2.284l-.1-.708s-.461.882-.573,1.149-.191.257-.191.257a3.406,3.406,0,0,1,.718-1.7A7.969,7.969,0,0,0,418.558,206.213Z" transform="translate(-297.308 -151.322)" fill="#6c63ff" opacity="0.1"/><path d="M576.6,187.3s-2.682,7.385,2.853,8.06a1.339,1.339,0,0,0,1.55-.267s-.385-.128-.03-.849a3.544,3.544,0,0,0,.283-.806,1.748,1.748,0,0,0-.119-1.119h0s-.247-2.373-3.459-4.219c0,0-.573-.833-.773-.866l.165,1.432a2.37,2.37,0,0,1,1.7.4s-1.646-.444-1.688-.188c0,.049.122.754.122.754a3.9,3.9,0,0,1,2.807.632s-1.9-.8-2.761-.365l.257,1.047a4.115,4.115,0,0,1,3.077.606s-2.017-.764-3-.379l.392.987a4.083,4.083,0,0,1,2.834.49s-2.419-.658-2.728-.27a5.186,5.186,0,0,0,.639,1.076s1.346-.211,1.866.329c0,0-1.665-.26-1.721-.089a5.641,5.641,0,0,0,1.553,1.316,4.029,4.029,0,0,1-1.708-1.168,2.212,2.212,0,0,0,.24,1.247s-.718-.329-.444-1.5a5.2,5.2,0,0,1-.632-.987,4.774,4.774,0,0,0-.329,1.892,2.142,2.142,0,0,1,.22-2.152l-.418-.987a6.6,6.6,0,0,0-.609,2.143,2.713,2.713,0,0,1,.527-2.4L577,190.074a8.2,8.2,0,0,0-.78,1.975,3.252,3.252,0,0,1,.714-2.284l-.1-.7s-.461.882-.569,1.145-.191.26-.191.26a3.37,3.37,0,0,1,.718-1.7A8.313,8.313,0,0,0,576.6,187.3Z" transform="translate(-403.332 -138.629)" fill="#6c63ff" opacity="0.1"/><path d="M318.366,159.183s-2.682,7.389,2.853,8.06a1.333,1.333,0,0,0,1.55-.267s-.385-.128-.03-.846a3.709,3.709,0,0,0,.283-.806,1.781,1.781,0,0,0-.119-1.122h0s-.247-2.373-3.459-4.219c0,0-.573-.829-.773-.862l.165,1.428a2.382,2.382,0,0,1,1.7.4s-1.646-.448-1.688-.191c0,.053.122.754.122.754a3.915,3.915,0,0,1,2.807.632s-1.9-.8-2.761-.365l.257,1.05a4.106,4.106,0,0,1,3.074.606s-2.014-.764-3-.382l.392.987a4.083,4.083,0,0,1,2.834.49s-2.422-.658-2.728-.27a5.186,5.186,0,0,0,.638,1.079s1.346-.214,1.863.329c0,0-1.662-.26-1.721-.086a5.734,5.734,0,0,0,1.557,1.316,4,4,0,0,1-1.708-1.168,2.212,2.212,0,0,0,.24,1.247s-.717-.329-.444-1.494a5.14,5.14,0,0,1-.632-.987,4.788,4.788,0,0,0-.329,1.892,2.144,2.144,0,0,1,.217-2.152l-.415-.987a6.689,6.689,0,0,0-.612,2.143,2.706,2.706,0,0,1,.527-2.4l-.26-1.027a8.2,8.2,0,0,0-.78,1.975,3.251,3.251,0,0,1,.714-2.284l-.1-.7s-.461.882-.569,1.149-.191.257-.191.257a3.383,3.383,0,0,1,.714-1.7A7.37,7.37,0,0,0,318.366,159.183Z" transform="translate(-230.09 -119.771)" fill="#6c63ff" opacity="0.1"/><path d="M570.05,311.084s2.07,7.57,6.981,4.937a1.34,1.34,0,0,0,1.112-1.112s-.388.115-.513-.678a3.555,3.555,0,0,0-.234-.82,1.787,1.787,0,0,0-.741-.849h0s-1.57-1.794-5.266-1.451c0,0-.948-.349-1.132-.26l.961,1.073a2.392,2.392,0,0,1,1.623-.658s-1.609.589-1.488.816c.023.046.533.546.533.546a3.89,3.89,0,0,1,2.659-1.1s-2.011.448-2.468,1.293l.816.711a4.111,4.111,0,0,1,2.86-1.28s-2.087.54-2.672,1.422l.9.589a3.992,3.992,0,0,1,2.6-1.234s-2.347.869-2.383,1.353a5.192,5.192,0,0,0,1.145.513s.987-.948,1.7-.813c0,0-1.507.744-1.455.922a5.846,5.846,0,0,0,2.024.171,4,4,0,0,1-2.067.03,2.219,2.219,0,0,0,.912.882s-.777.142-1.224-.968a5.129,5.129,0,0,1-1.089-.444,4.8,4.8,0,0,0,.823,1.734,2.137,2.137,0,0,1-1.063-1.883l-.905-.563a6.845,6.845,0,0,0,.734,2.1,2.708,2.708,0,0,1-.954-2.264l-.806-.685a8.317,8.317,0,0,0,.51,2.073,3.285,3.285,0,0,1-.731-2.281l-.487-.52s.132.987.2,1.267,0,.329,0,.329a3.386,3.386,0,0,1-.4-1.8A8.123,8.123,0,0,0,570.05,311.084Z" transform="translate(-399.376 -221.554)" fill="#6c63ff" opacity="0.1"/><path d="M425.631,263.946A18.012,18.012,0,0,0,428,266.224l6.411,5.463a11.269,11.269,0,0,0,3.752,2.432,5.872,5.872,0,0,0,5.121-.787l-.109-.036.109-.072a9.67,9.67,0,0,1-3.084-1.412,3.466,3.466,0,0,1-1.356-2.3h0v-.135a2.4,2.4,0,0,1,.036-.372,8.159,8.159,0,0,0,3.861-1.359l-.112-.039.112-.069c-3.416-1.1-5.783-4.3-6.856-7.695s-1.076-7.007-1.191-10.558-.379-7.2-1.912-10.413a17.1,17.1,0,0,1-1.6-3.653,5.681,5.681,0,0,1-.109-1.175,15.689,15.689,0,0,1,.731-3.778,78.752,78.752,0,0,0,1.8-8.4,19.693,19.693,0,0,0,.293-3.044,7.823,7.823,0,0,0-.471-2.926c-1.507-3.917-6.747-5.763-7.547-9.874a8.647,8.647,0,0,1-.119-1.675v-.922c0-.306,0-.658-.026-.961-.227-2.893-2.017-5.4-3.745-7.751-2.08-2.824-4.279-5.76-7.474-7.264a17.776,17.776,0,0,0-8.758-1.3,22.784,22.784,0,0,0-4.338-2.946,19.562,19.562,0,0,0-7.112-2.771c-3.176-.349-6.316.869-9.5,1.073-4.331.28-8.583-1.316-12.915-1.646s-9.317,1.129-11.253,5.49a10.469,10.469,0,0,0-.816,3.334h0c-.02.221-.033.438-.043.658v.023a20.709,20.709,0,0,0,.076,2.669v.1a4.866,4.866,0,0,0,.053.533.5.5,0,0,0,.016.155,4.2,4.2,0,0,0,.056.494l.02.155c.026.207.056.415.082.622a6.623,6.623,0,0,0,.273,1.257,2.364,2.364,0,0,0,.349.658,2.784,2.784,0,0,0,1.909.889l.576.082c-.059.118-.122.237-.178.359a20.461,20.461,0,0,0-1.975,8.81,20.825,20.825,0,0,0,17.68,20.5l.6.75c3.693,4.627,8.327,10.8,10.532,15.251-2.547,3.163-5.529,8.771-6.378,18.177l-1.26,2.942c-2.643,3.8-3.324,9.284-2.643,14.386-.744,2.758-1.593,6.224-2.182,9.09-4.381-.971-19.332-3.373-22.867-5.707l-10.367-4.884s-13.494-9.426-20.754-6.28a58.24,58.24,0,0,0-8.764-8.33c-3.094-2.32-10.788-11.384-10.788-11.384l-12.056-16c-.033-1.853-.23-3.436-.737-4.117-1.422-1.9-8.949-6.125-10.453-5.213s-2.761-1.975-2.761-1.975l-.115-.062c-.283-.165-1.086-.619-2.2-1.218a29.258,29.258,0,0,1,.1-4.005c.023-.224.053-.448.086-.658a18.348,18.348,0,0,0,17.167-14c.053-.207.089-.421.132-.632a3.235,3.235,0,0,0,3.038-.882,4.857,4.857,0,0,0,.764-4.374,40.906,40.906,0,0,1-1.152-4.473c-.207-2.09.53-4.279-.148-6.253a6.95,6.95,0,0,0-3.67-3.709c-1.6-.8-3.35-1.267-4.986-1.994-1.56-.691-3.011-1.619-4.631-2.166a19.124,19.124,0,0,0-6.582-.681,16.625,16.625,0,0,0-4.311-1.267,6.14,6.14,0,0,0-4.71,1.228c-.987.875-1.79,2.281-3.13,2.327a4.043,4.043,0,0,1-1.836-.583c-1.662-.8-3.765-1.247-5.266-.191a5.434,5.434,0,0,0-1.853,3.837,12.474,12.474,0,0,1-.941,4.255,18.47,18.47,0,0,1-1.629,2.169,9.321,9.321,0,0,0-1.82,6.4v.066c-.079-.329-.155-.635-.211-.958a5.378,5.378,0,0,0,.033.727,18.728,18.728,0,0,0,.734,3.327l1.363,4.772a28.038,28.038,0,0,0,2.715,7.037,11.589,11.589,0,0,0,1.846,2.32,8.527,8.527,0,0,0,4.137,2.4,5.3,5.3,0,0,0,1.692.1,1.088,1.088,0,0,1-.03.2c-.122-.023-.247-.049-.362-.066a3.515,3.515,0,0,0-1.616.043c-2.6.925-3.39,3.739-3.62,4.845-.053.283-.069.454-.069.454s.043.165.092.444l-.023.1c-.053.28-.069.454-.069.454s.043.165.092.451l-.678.016-11.338,1.481a25.949,25.949,0,0,0-6.375.1,2.635,2.635,0,0,0-.329.1c-1.646.569-9.186,5.773-15.952,10.561a2.475,2.475,0,0,0-.02-.385l-1.925,1.369v.4c-.481.329-.958.678-1.419,1.01-2.07,1.481-3.949,2.817-5.348,3.841-1.7,1.224-2.761,2-2.761,2a2,2,0,0,0-1.04,1.168c-.533,1.234-.717,3.716,1.208,8.6a67.363,67.363,0,0,1,4.18,14.57,10.473,10.473,0,0,0-2.715.658,4.914,4.914,0,0,0-2.946,2.633,4.532,4.532,0,0,0-.023,2.929c1.586,5.628,27.847,37.585,27.847,37.585l.329.03a23.075,23.075,0,0,0,4.048,0,4.609,4.609,0,0,0,2.9-1.04s5.822,7.474,14.373,2.383c-.059,6.78-.23,11.753.846,14.257,1.675,3.89,1.675,12.747,1.675,12.747l1.593.056c-.086.329-.181.658-.283.987-.734,2.426-1.817,5.358-2.962,6.059-1.929,1.185-1.014,21.551-.935,23.308h0v.105l-.112,8.228v.658a7.971,7.971,0,0,1-.642-1.014s-3.1,2.962-3.156,9.215a60.006,60.006,0,0,0,.056,6.464s12.506-.484,14.853.379,21.972-.75,21.972-.75a2.885,2.885,0,0,0-1.366-3.341c3.337-.24,6.977-.879,9.11-2.426,4.69-3.387-9.462-6.026-10.449-6.563s-5.878-4.851-7.9-6.467a4.108,4.108,0,0,0-2.087-.777l.253-7.375c3.011-3.393,6.273-22.1,6.273-22.1,1.066-.889,1.53-3.051,1.721-4.371a2,2,0,0,0,1.372-1.84h0c3.446.115,7.78.089,8.613-.737,1.422-1.409,1.254-6.21,1.254-6.21L296.561,280.8l-.132-.194a25.343,25.343,0,0,0,.02-7.017c4.509,1.287,8.017,2.162,8.017,2.162s6.786,1.251,11.549,2.3a7.784,7.784,0,0,0-1.725,2.9c-4.279,12.177,19.987,11.674,19.987,11.674l11.457,5.3,26.968,8.814c-8.666-2.557-18.566-5.565-25.3-7.629a17.7,17.7,0,0,0-2.021-.49,17.184,17.184,0,0,0-16.538,6.1c-.046.063-.089.118-.138.178a7.24,7.24,0,0,0-.171,8.593c1.03,1.458,2.409,3.4,4.025,5.651-3.42,1.033-9.077,3.913-5.638,11.318,4.766,10.265,17.558,16.127,17.558,16.127s8.363,2.4,10.532,5.052a38.892,38.892,0,0,0,6.039,4.381c1.975,2.09,3.522,3.456,4.44,3.758,3.666,1.208,10.8,7,15.827,11.351l-.754,10.387-.049.625-.309-.263s-2.221,4.608-8.659,6.151a5.513,5.513,0,0,0-3.222,2.1l-.023.03-.191.276-.145-.109c-1.316,1.853-1.929,4.552,3.041,5.3a57.143,57.143,0,0,0,16.456-.5l7.754-7.168a7.616,7.616,0,0,0,2.962,1.537c5.8,1.316,22.074,7.616,22.074,7.616,0-1.767,14.386-24.5,14.386-24.5,19.418-36.756-1.7-64.224-4.032-67.084l-.207-.25-.181-3.054-.039-.7s10.479-4.634,6.464-6.839-6.253-12.806-10.035-17.219c-2.962-3.443-2.791-11.434-3.1-18.243a10.963,10.963,0,0,0,2.129,4.608c.023.03.049.053.072.082l-.28-.244A3.372,3.372,0,0,0,425.631,263.946Zm-129.123-2.824a46.361,46.361,0,0,0,5.266,4.486c-1.869-.912-3.324-1.682-4.446-2.3-.263-.731-.54-1.461-.82-2.182ZM256.589,226.68a5.44,5.44,0,0,1-1.695,2.472l-.658-2.84C255.1,226.45,255.9,226.578,256.589,226.68Zm131.542,78.037c.26-.56.53-1.109.8-1.646a6.171,6.171,0,0,0,2.926-2.034,41.773,41.773,0,0,1,1.27,6.076v.148a9.269,9.269,0,0,1-.372,2.445c-.3.961-.856,1.866-1.86,1.975a36.734,36.734,0,0,1-5.552-1.293c-.892-.244-1.873-.517-2.919-.813C384.07,309.467,386.354,308.542,388.131,304.718Zm25.753-69.444a5.428,5.428,0,0,0-3.469-1.991c-.286-.191-.731-.494-1.3-.905-2.765-2.024-8.284-6.582-10.815-12.4a13.937,13.937,0,0,0,2.06-.754,14.9,14.9,0,0,0,2.909-1.761c.3-.237.6-.484.882-.741a15.36,15.36,0,0,0,1.975-2.156c.234-.329.461-.642.658-.987a15.17,15.17,0,0,0,.875-1.573,19.608,19.608,0,0,0,1.379-3.949c.128-.546.24-1.1.329-1.662s.174-1.122.237-1.688a47.675,47.675,0,0,0,.234-6.013v-.395h0a29.421,29.421,0,0,0-.658-6.052c.148.056.3.112.438.178a4.429,4.429,0,0,1,.678.411c-.053-.076-.112-.151-.168-.227a8.549,8.549,0,0,1,2.3,2.544,36.325,36.325,0,0,1,3.9,31.065,18.561,18.561,0,0,0-1.185,4.3c-.464,5.3,4.608,9.347,6.493,14.33a25.974,25.974,0,0,1,1.218,8c-1.422-6.935-6.619-13.76-8.965-17.562Z" transform="translate(-157.245 -131.717)" fill="url(#a)"/><path d="M406.567,665.223s-.247,4.114-1.81,5.43c0,0-3.209,18.6-6.171,21.969l-.494,1.892-12.342-1.4,2.468-16.456,2.3-15.139Z" transform="translate(-275.732 -456.822)" fill="#ffc1c8"/><path d="M406.567,665.223s-.247,4.114-1.81,5.43c0,0-3.209,18.6-6.171,21.969l-.494,1.892-12.342-1.4,2.468-16.456,2.3-15.139Z" transform="translate(-275.732 -456.822)" opacity="0.03"/><path d="M344.158,713.219l5.319-.234-.283,8.373-4.071,2.728-7.333-1.606,2.676-11.19Z" transform="translate(-226.624 -477.189)" fill="#ff748f"/><path d="M344.158,713.219l5.319-.234-.283,8.373-4.071,2.728-7.333-1.606,2.676-11.19Z" transform="translate(-226.624 -477.189)" opacity="0.03"/><path d="M400.919,778.581s4.176-1.231,6.158.375,6.8,5.888,7.764,6.424,14.87,3.16,10.278,6.53-16.38,2.409-16.38,2.409-7.711-2.251-7.925-2.357-4.937-2.409-5.085-2.57,1.336-10.861,1.336-10.861Z" transform="translate(-282.42 -535.054)" fill="#5d618c"/><path d="M400.919,778.581s4.176-1.231,6.158.375,6.8,5.888,7.764,6.424,14.87,3.16,10.278,6.53-16.38,2.409-16.38,2.409-7.711-2.251-7.925-2.357-4.937-2.409-5.085-2.57,1.336-10.861,1.336-10.861Z" transform="translate(-282.42 -535.054)" opacity="0.03"/><path d="M267.45,364.023l-.247,15.3-.56,32.632-.329.286c-9.791,8.475-16.7-.494-16.7-.494a4.49,4.49,0,0,1-2.857,1.033,22.332,22.332,0,0,1-3.982,0l-.329-.03s-25.842-31.783-27.406-37.378a4.562,4.562,0,0,1,.023-2.909,4.872,4.872,0,0,1,2.9-2.6,10.229,10.229,0,0,1,2.672-.658,67.622,67.622,0,0,0-4.114-14.481c-1.9-4.854-1.711-7.32-1.188-8.557A1.981,1.981,0,0,1,216.354,345s1.04-.767,2.715-1.975c1.392-1.017,3.225-2.347,5.266-3.818l1.892-1.356c6.981-5.009,15.393-10.907,17.114-11.519a2.525,2.525,0,0,1,.329-.1c3.531-.852,15.383.918,15.383.918Z" transform="translate(-161.052 -231.731)" fill="#6c63ff"/><path d="M324.208,364.036l-.247,15.3C312.254,375.881,301.37,353,299.936,351.2c-1.228-1.567.033-19.013.5-24.944,3.531-.852,15.383.918,15.383.918Z" transform="translate(-217.811 -231.744)" fill="none"/><path d="M324.208,364.036l-.247,15.3C312.254,375.881,301.37,353,299.936,351.2c-1.228-1.567.033-19.013.5-24.944,3.531-.852,15.383.918,15.383.918Z" transform="translate(-217.811 -231.744)" opacity="0.1"/><path d="M622.489,349.478s-9.133,4.69-10.285,23.121c0,0-1.481,9.38-2.3,11.025s-4.772,17.2-4.278,19.089c0,0-.823,1.892-3.867,1.07s-19.5-3.373-23.2-5.842l-10.2-4.854s-19.912-14.07-24.108-1.975,19.665,11.608,19.665,11.608l11.272,5.266,34.146,11.266s4.525,2.057,7.57-4.525a77.227,77.227,0,0,1,6.911-11.848s6.911-19.418,6.829-22.709,7.405-11.108,7.405-11.108,1.481-20.734-10.7-20.323Z" transform="translate(-381.729 -246.978)" fill="#ffc1c7"/><path d="M622.489,349.478s-9.133,4.69-10.285,23.121c0,0-1.481,9.38-2.3,11.025s-4.772,17.2-4.278,19.089c0,0-.823,1.892-3.867,1.07s-19.5-3.373-23.2-5.842l-10.2-4.854s-19.912-14.07-24.108-1.975,19.665,11.608,19.665,11.608l11.272,5.266,34.146,11.266s4.525,2.057,7.57-4.525a77.227,77.227,0,0,1,6.911-11.848s6.911-19.418,6.829-22.709,7.405-11.108,7.405-11.108,1.481-20.734-10.7-20.323Z" transform="translate(-381.729 -246.978)" opacity="0.03"/><path d="M473.063,399.64a15.892,15.892,0,0,0,2.8,1.764s7.57,9.008,10.614,11.312,13,11.108,10.986,14.442-4.279,2.59-4.279,2.59l-17.815-12.342s-6.253-4.483-7.527-6.622a49.488,49.488,0,0,1-2.84-6.619Z" transform="translate(-328.9 -281.131)" fill="#ffc1c8"/><path d="M473.063,399.64a15.892,15.892,0,0,0,2.8,1.764s7.57,9.008,10.614,11.312,13,11.108,10.986,14.442-4.279,2.59-4.279,2.59l-17.815-12.342s-6.253-4.483-7.527-6.622a49.488,49.488,0,0,1-2.84-6.619Z" transform="translate(-328.9 -281.131)" opacity="0.03"/><path d="M400.548,313.32l12.793,17.154-11.519,4.486L397.05,320.6Z" transform="translate(-266.38 -210.198)" fill="#dce6f2"/><path d="M400.548,313.32l12.793,17.154-11.519,4.486L397.05,320.6Z" transform="translate(-266.38 -210.198)" opacity="0.03"/><path d="M449.291,485.77l2.3,3.373,1.975,50.52s.165,4.772-1.234,6.171-12.836.494-12.836.494.411-51.507.576-52.494S449.291,485.77,449.291,485.77Z" transform="translate(-311.792 -338.915)" fill="#575988"/><path d="M449.291,485.77l2.3,3.373,1.975,50.52s.165,4.772-1.234,6.171-12.836.494-12.836.494.411-51.507.576-52.494S449.291,485.77,449.291,485.77Z" transform="translate(-311.792 -338.915)" opacity="0.1"/><path d="M382.223,671.411a41.755,41.755,0,0,1-2.633,5.345s-2.139,12.207-3.051,13.333c-.658.823-.961,6.964-1.07,10.167-.039,1.158-.056,1.932-.056,1.932l-12.579,6-.056-7.925v-.105h0c-.079-1.747-.987-21.988.918-23.167,1.119-.694,2.185-3.62,2.906-6.02.55-1.853.9-3.4.9-3.4s13.974-.908,15.139.589C383.066,668.686,382.769,669.983,382.223,671.411Z" transform="translate(-260.13 -460.694)" fill="#ffc1c8"/><path d="M390.56,671.377c-5.667-.119-12.77-.359-15.64-.461.55-1.853.9-3.4.9-3.4s13.974-.908,15.139.589C391.4,668.652,391.106,669.949,390.56,671.377Z" transform="translate(-268.467 -460.66)" opacity="0.1"/><path d="M365.685,451.479s-3.867,20.57-3.127,33.817-.576,23.032,1.07,26.905,1.646,12.671,1.646,12.671,22.38.823,24.684.494,2.222-2.057,2.222-2.057-1.563-13.665-.082-17.944S393.33,488,393.33,488l6.253-21.064s1.892-9.462-2.057-13.329S365.685,451.479,365.685,451.479Z" transform="translate(-260.11 -315.649)" fill="#575988"/><path d="M633.558,666.947l-.987,1.448-6.105,9.084-5.184,1.563-3.867-3.785.188-2.5.964-12.971S594.64,645.712,592.5,643.079s-10.367-5.019-10.367-5.019-12.589-5.842-17.279-16.044,7.817-11.766,7.817-11.766l46.982,44.931Z" transform="translate(-395.185 -422.426)" fill="#ffc1c7"/><path d="M690.456,744.724l-6.105,9.084-5.184,1.563-3.867-3.785.188-2.5,4.255,3.65,7.981-9.3Z" transform="translate(-453.053 -498.758)" opacity="0.1"/><path d="M722.32,789.45l-14.893,13.905a55.8,55.8,0,0,1-16.209.494c-4.891-.737-3.949-3.42-2.663-5.266l.023-.033a5.41,5.41,0,0,1,3.173-2.087,12.822,12.822,0,0,0,8.518-6.112l4.608,3.949,7.981-9.3,5.9,2.771Z" transform="translate(-478.187 -539.663)" fill="#575988"/><path d="M721.9,795.6,707,809.51a55.8,55.8,0,0,1-16.209.494c-4.891-.737-4.279-3.42-2.992-5.266a10.2,10.2,0,0,0,5.131,2.136,81.918,81.918,0,0,0,10.532,0l14.87-12.944Z" transform="translate(-477.762 -545.654)" fill="#fff"/><path d="M385.858,284.355c-1.211.606-1.767,2.475-1.991,4.608a39.373,39.373,0,0,0,.234,8.024s-16.456-4.5-14.7-5.378c1.01-.5,1.547-4.17,1.82-7.188.2-2.231.263-4.111.263-4.111S389.149,282.709,385.858,284.355Z" transform="translate(-264.677 -201.075)" fill="#ffc1c8"/><path d="M743.86,302.015S723.892,320.883,724.55,315.4a6.667,6.667,0,0,0-.691-3.067c-1.846-4.45-6.951-11.358-10.943-16.41-2.929-3.706-5.266-6.414-5.266-6.414s24.8-20.843,22.824-8.995a14.214,14.214,0,0,0,1.083,7.958c2.472,5.819,7.948,10.4,10.683,12.418C743.228,301.617,743.86,302.015,743.86,302.015Z" transform="translate(-491.69 -198.767)" fill="#ffc1c7"/><path d="M727.746,284.131c-.359.444-1.688,2-2.083,2.416-3.752,3.907-4.252,9.544-10.094,9.544a20.515,20.515,0,0,1-2.633-.168c-2.929-3.706-5.266-6.414-5.266-6.414s24.792-20.843,22.818-8.995C730.02,283.324,726.7,281.669,727.746,284.131Z" transform="translate(-491.703 -198.767)" opacity="0.1"/><path d="M710.242,228.562a20.544,20.544,0,1,1-6.017-14.606A20.626,20.626,0,0,1,710.242,228.562Z" transform="translate(-465.753 -152.523)" fill="#ffc1c7"/><path d="M776.9,350.566s-19.968,18.868-19.309,13.385a6.669,6.669,0,0,0-.691-3.067l2.886-6.806a19.526,19.526,0,0,1,12.773-4.838,18.591,18.591,0,0,1,2.557.174l.165.026C776.269,350.168,776.9,350.566,776.9,350.566Z" transform="translate(-524.73 -247.319)" opacity="0.1"/><path d="M673.54,490.137s-14.152,22.6-14.152,24.355c0,0-16.018-6.253-21.722-7.57s-11.081-13.273-11.081-13.273-15.139-14.264-21.064-16.239c-5.026-1.675-29.176-35.742-36.371-46.02a7.241,7.241,0,0,1,.171-8.541l.135-.174a16.815,16.815,0,0,1,16.272-6.062,16.994,16.994,0,0,1,1.975.487c10.361,3.2,28.3,8.705,37.355,11.19a38.008,38.008,0,0,0,5.463,1.287c.987-.1,1.53-.987,1.83-1.958a9.312,9.312,0,0,0,.365-2.429v-.148a41.757,41.757,0,0,0-1.3-6.187c-1.056-3.62-2.886-7.869-5.924-9.9-2.521-1.682-4.525-5.391-5.575-9.7-1.412-5.822-1.086-12.75,2.064-17.285l3.044-7.181,5.091-12.013,2.837-6.694a19.526,19.526,0,0,1,12.773-4.838,18.581,18.581,0,0,1,2.557.174c2.182.3,4.068.958,4.854,2.248,2.412,3.949,7.9,11.19,8.995,18.431s-.217,19.089,3.512,23.479,5.924,14.919,9.874,17.114-6.362,6.8-6.362,6.8l.039.694.178,3.038s.072.082.2.247C671.872,426.308,692.629,453.609,673.54,490.137Z" transform="translate(-397.894 -248.661)" fill="#35c8cb"/><path d="M801.15,564.015c-4.325.905-13.783,2.876-18,3.742l-.741.151c-.247.049-.523.1-.823.138-4.239.583-13.434.3-17.644.125a9.307,9.307,0,0,0,.365-2.429V565.6a139.049,139.049,0,0,0,17.3-2.149c.53-.109,1.053-.224,1.563-.329.737-.171,1.455-.352,2.139-.543a57.569,57.569,0,0,1,15.469-1.83l.178,3.038S801,563.851,801.15,564.015Z" transform="translate(-529.453 -389.211)" fill="#575988"/><path d="M819.063,567.92v4.654l-.74.151c-.247.049-.523.1-.823.138v-4.588C818.03,568.154,818.553,568.039,819.063,567.92Z" transform="translate(-565.386 -394.028)" fill="#ff6584"/><path d="M767.58,595s-8.8,20.159-14.152,22.133S734.75,626.1,734.75,626.1s7.652,6.747,15.633-.658S769.883,598.291,767.58,595Z" transform="translate(-509.87 -412.195)" opacity="0.1"/><path d="M862.185,586.77s.823,7.652-.329,9.051S862.185,586.77,862.185,586.77Z" transform="translate(-594.849 -406.674)" opacity="0.1"/><path d="M842.358,602s4.443,46.57-17.608,46.817C824.75,648.824,845.4,628.329,842.358,602Z" transform="translate(-570.25 -416.891)" opacity="0.1"/><path d="M891.225,636s6.335,24.437-1.975,27.234A61.985,61.985,0,0,0,891.225,636Z" transform="translate(-613.522 -439.701)" opacity="0.1"/><path d="M746.948,617c-.411,0-17.114,2.88-13.494,5.184S746.948,617,746.948,617Z" transform="translate(-508.656 -426.954)" opacity="0.1"/><path d="M810.5,516.77s13.658,12.1,11.025,13.412" transform="translate(-560.69 -359.712)" opacity="0.1"/><path d="M807,528.52s7.9,9.709,6.994,10.285" transform="translate(-558.342 -367.595)" opacity="0.1"/><path d="M858.25,524s3.62,4.525,3.044,5.513" transform="translate(-592.724 -364.562)" opacity="0.1"/><path d="M869.25,516.77s5.184,4.025,4.032,5.595" transform="translate(-600.104 -359.712)" opacity="0.1"/><path d="M754.076,367.77s16.867,1.316,16.127,14.893-13.329,17.032-13.329,17.032L740.5,395S747.823,368.675,754.076,367.77Z" transform="translate(-513.728 -259.75)" fill="#ffc1c7"/><path d="M624.178,550.357c10.361,3.2,28.3,8.705,37.355,11.19a4.785,4.785,0,0,1-3.861.214L623.526,550.5l-1.336-.625A17,17,0,0,1,624.178,550.357Z" transform="translate(-434.356 -381.918)" opacity="0.1"/><path d="M751.659,397.3c-1.6,2.139-3.015,4.443-2.962,5.885A34.473,34.473,0,0,1,747.124,410a113.828,113.828,0,0,1-9.544,22.617c-1.056-3.62-2.886-7.869-5.924-9.9-2.521-1.682-4.525-5.391-5.575-9.7a57.066,57.066,0,0,1,1.873-6.368c.823-1.646,2.3-11.025,2.3-11.025a49.289,49.289,0,0,1,.932-7.073,29.807,29.807,0,0,1,5.091-12.013,14.216,14.216,0,0,1,4.279-4.035l4.854-.741c5.595-.188,8.294,4.068,9.594,8.732A19.51,19.51,0,0,1,751.659,397.3Z" transform="translate(-504.054 -262.422)" opacity="0.1"/><path d="M606.489,368.518s-9.133,4.69-10.285,23.121c0,0-1.481,9.38-2.3,11.025s-4.772,17.2-4.279,19.089c0,0-.823,1.892-3.867,1.07s-19.5-3.373-23.2-5.842l-10.2-4.854s-19.912-14.07-24.108-1.975,19.665,11.608,19.665,11.608l11.272,5.266,34.146,11.266s4.525,2.057,7.57-4.525c.76-1.646,1.573-3.209,2.366-4.631a114.424,114.424,0,0,0,9.811-23.1,33.286,33.286,0,0,0,1.573-6.809c-.036-1.442,1.379-3.749,2.962-5.885a19.4,19.4,0,0,0,3.324-16.818c-1.3-4.664-4.012-8.919-9.594-8.728Z" transform="translate(-370.995 -259.765)" fill="#ffc1c7"/><path d="M389.836,284.328c-1.211.606-1.767,2.475-1.991,4.608H387.2a18,18,0,0,1-12-4.555c.2-2.231.263-4.111.263-4.111S393.127,282.682,389.836,284.328Z" transform="translate(-268.655 -201.048)" opacity="0.1"/><path d="M392.873,212.7a18.1,18.1,0,1,1-18.1-18.1A18.1,18.1,0,0,1,392.873,212.7Z" transform="translate(-256.223 -143.574)" fill="#ffc1c8"/><path d="M388.467,357.1s-9.462,3.785-12.424,5.1-19.912-1.728-19.912-1.728-8.8-4.443-8.063-8.886-7.076-19-7.076-19-.247-12.918,3.209-15.386,2.139-7.652,2.139-7.652.016-.171.069-.451c.214-1.1.987-3.9,3.551-4.815a3.4,3.4,0,0,1,1.59-.043c2.458.372,6.5,2.2,9.837,3.89,2.765,1.4,5.052,2.7,5.575,3l.112.063s1.234,2.88,2.715,1.975,8.886,3.291,10.285,5.184.411,10.779.165,13,1.4,8.8,3.209,12.582S388.467,357.1,388.467,357.1Z" transform="translate(-245.703 -217.079)" opacity="0.1"/><path d="M388.467,354.1s-9.462,3.785-12.424,5.1-19.912-1.728-19.912-1.728-8.8-4.443-8.063-8.886-7.076-19-7.076-19-.247-12.918,3.209-15.386,2.139-7.652,2.139-7.652.016-.171.069-.451c.214-1.1.987-3.9,3.551-4.815a3.4,3.4,0,0,1,1.59-.043c2.458.372,6.5,2.2,9.837,3.89,2.765,1.4,5.052,2.7,5.575,3l.112.063s1.234,2.88,2.715,1.975,8.886,3.291,10.285,5.184.411,10.779.165,13,1.4,8.8,3.209,12.582S388.467,354.1,388.467,354.1Z" transform="translate(-245.703 -215.066)" fill="#dce6f2"/><path d="M372.936,423.265s-8.119,13.165-9.436,13.879l.494,4.608s11.575-2.416,12.289-5.651.329-13,.329-13Z" transform="translate(-260.805 -296.87)" fill="#575988"/><path d="M372.936,423.265s-8.119,13.165-9.436,13.879l.494,4.608s11.575-2.416,12.289-5.651.329-13,.329-13Z" transform="translate(-260.805 -296.87)" opacity="0.2"/><path d="M426.88,372.64s1.438,5.556,3.7,7.448S426.88,372.64,426.88,372.64Z" transform="translate(-303.326 -263.018)" opacity="0.1"/><path d="M384,409.926c.207.372,7.158,9.834,14.481,13.329s23.657,7.612,23.657,7.612,13.247,2.468,15.508,3.413,5.144-3.291-9.051-9.337-16.95-8.722-16.95-8.722-12.342-6.013-14.317-8.975S384,409.926,384,409.926Z" transform="translate(-274.558 -285.658)" fill="#ffc1c8"/><path d="M399.75,547.908c.247-.165,6.171-6.5,6.911-3.785S399.75,547.908,399.75,547.908Z" transform="translate(-285.125 -377.609)" opacity="0.1"/><path d="M403.541,519c-.082.247-.905,7.241-3.291,8.063" transform="translate(-285.46 -361.208)" opacity="0.1"/><path d="M407.854,524.77s-2.139,7.487-4.854,7.975" transform="translate(-287.305 -365.079)" opacity="0.1"/><path d="M384.75,588.471s3.62.082,4.114-2.221" transform="translate(-275.062 -406.325)" opacity="0.1"/><path d="M399.75,638.52c.494.082,8.228,5.019,6.253,6.006S399.75,638.52,399.75,638.52Z" transform="translate(-285.125 -441.392)" opacity="0.1"/><path d="M376.011,765.14v.76c-.039,1.159-.056,1.932-.056,1.932l-12.579,6-.056-7.925V765.8h0v-.536l5.036.161Z" transform="translate(-260.685 -526.339)" opacity="0.1"/><path d="M326.592,738.427,316.1,742.443l-4.71-2.784.049-3.811.109-8.182,5.035.161,7.655-.267v5.73Z" transform="translate(-208.913 -488.104)" fill="#ff748f"/><path d="M378.012,788.492l-10.492,4.015-4.71-2.784.049-3.811a7.626,7.626,0,0,0,5.786,2.995s3.693-4.608,5.941-5.944a1.373,1.373,0,0,1,1.073-.145v.536Z" transform="translate(-260.342 -538.165)" opacity="0.1"/><path d="M361.109,790.889a7.565,7.565,0,0,1-6.424-4.015s-3.051,2.946-3.107,9.156a59.41,59.41,0,0,0,.056,6.424s12.312-.481,14.616.375,21.63-.75,21.63-.75,1.284-3.373-4.552-4.552-10.654-7.389-10.815-7.655-3.212-6.253-5.46-4.937S361.109,790.889,361.109,790.889Z" transform="translate(-252.797 -539.492)" fill="#5d618c"/><path d="M412.548,188.458l-1.228-.168.767-.02Z" transform="translate(-292.887 -139.327)" opacity="0.1"/><path d="M392.855,212.739a18.14,18.14,0,0,1-.484,4.17,2.9,2.9,0,0,1-.78-.329c-.352-.227-.7-.54-1.119-.5a1.333,1.333,0,0,0-.658.3c-1.948,1.425-3.4,3.768-5.766,4.223a3.8,3.8,0,0,0,.092-2.152,4.453,4.453,0,0,1-3.9,1.251,1.88,1.88,0,0,0,.056-1.293,37.775,37.775,0,0,1-5.2,2.412c-.063-.329-.122-.632-.184-.948-2.521,1.231-2.324,5.407-4.845,6.638-1.5.734-3.62.207-4.657,1.53-.039.053-.076.105-.112.161a18.1,18.1,0,1,1,27.547-15.445Z" transform="translate(-256.205 -143.612)" opacity="0.1"/><path d="M362.895,183.775a17.788,17.788,0,0,0-4.7-1.448,5.975,5.975,0,0,0-4.634,1.221c-.987.869-1.761,2.264-3.077,2.3a3.961,3.961,0,0,1-1.81-.579c-1.646-.79-3.7-1.237-5.187-.191a5.393,5.393,0,0,0-1.823,3.818,12.211,12.211,0,0,1-.925,4.229,18.757,18.757,0,0,1-1.6,2.156,9.314,9.314,0,0,0-1.79,6.365,18.476,18.476,0,0,0,.717,3.308l1.343,4.743a28.011,28.011,0,0,0,2.672,6.994,9.478,9.478,0,0,0,5.727,4.539c1.468.329,3.245.059,4.068-1.2.211-.329.346-.681.576-.987,1.02-1.316,3.156-.793,4.657-1.527,2.521-1.231,2.324-5.407,4.845-6.638l.188.945a38.3,38.3,0,0,0,5.193-2.409,1.9,1.9,0,0,1-.053,1.293,4.466,4.466,0,0,0,3.9-1.251,3.8,3.8,0,0,1-.092,2.152c2.37-.457,3.818-2.8,5.766-4.226a1.36,1.36,0,0,1,.658-.3c.418-.036.767.276,1.119.5a3.153,3.153,0,0,0,3.9-.5,4.865,4.865,0,0,0,.75-4.351,36.475,36.475,0,0,1-1.129-4.443c-.207-2.077.517-4.246-.148-6.22a6.873,6.873,0,0,0-3.62-3.686c-1.583-.8-3.291-1.26-4.907-1.975-1.534-.688-2.962-1.609-4.555-2.152a20.637,20.637,0,0,0-7.241-.658" transform="translate(-243.234 -135.306)" fill="#794f6a"/><path d="M352.266,338.707s2.633-17.716-19.912-16.841L321,323.377s10.831,1.948,13.438,2.235l.276.04C337.127,326.092,345.467,325.542,352.266,338.707Z" transform="translate(-232.293 -228.933)" fill="#6c63ff"/><path d="M372.25,580.218v-.2C381.495,572.019,372.25,580.218,372.25,580.218Z" transform="translate(-266.676 -399.792)" opacity="0.1"/><path d="M247.248,502.184a22.321,22.321,0,0,1-3.982,0l-27.7-40.31a4.872,4.872,0,0,1,2.9-2.6Z" transform="translate(-161.562 -321.136)" fill="#575988"/><path d="M229.838,404.326l-1.316,1.563s-9.985-16.588-12.131-25.013a1.98,1.98,0,0,1,1.024-1.162s1.04-.767,2.715-1.975C220.751,381.7,222.874,391.392,229.838,404.326Z" transform="translate(-162.112 -266.439)" fill="#575988"/><path d="M258.359,385.807l-2.633,1.481c-7.188-8.412-7.8-22.545-7.734-28.176l1.9-1.363C250.144,365.145,258.359,385.807,258.359,385.807Z" transform="translate(-183.31 -253.028)" fill="#575988"/><path d="M298.271,438.52c-.082,1.07-3.127,11.93,1.316,13.741S298.271,438.52,298.271,438.52Z" transform="translate(-216.31 -307.215)" opacity="0.1"/><path d="M329.5,485.039c.165.576,1.646,19.336,4.854,17.855s1.481-22.874,1.481-22.874Z" transform="translate(-237.995 -335.057)" opacity="0.1"/><path d="M714.22,228.5a20.544,20.544,0,0,1-5.753,14.284,12.02,12.02,0,0,1-4.575.079,4.555,4.555,0,0,1-2.139-.859,5.564,5.564,0,0,1-1.386-2c-1.2-2.584-1.817-5.569-3.5-7.78s-5.1-3.183-6.73-.915c-.885,1.231-1.033,3.123-2.215,3.976-1.418,1.027-3.291-.181-4.394-1.646-3.258-4.279-2.143-12.691-8.356-13.872l-.25-.043a20.626,20.626,0,0,1,39.3,8.781Z" transform="translate(-469.731 -152.465)" opacity="0.1"/><path d="M668.966,208.206c-1.007-.194-2.175-.168-2.85-1.037a3.99,3.99,0,0,1-.609-1.9c-.4-2.916-.625-6.046.536-8.689,1.906-4.335,6.809-5.783,11.072-5.46s8.445,1.912,12.707,1.646c3.133-.2,6.224-1.415,9.347-1.07a19.018,19.018,0,0,1,7,2.758,16.74,16.74,0,0,1,5.681,4.466c2.166,2.979,2.574,7.092,2.633,10.953.072,4.532-.247,9.238-2.149,13.227-2.758,5.789-8.909,9.235-14.642,8.2a4.555,4.555,0,0,1-2.139-.859,5.594,5.594,0,0,1-1.382-2c-1.2-2.587-1.82-5.569-3.505-7.784s-5.1-3.179-6.73-.912c-.885,1.228-1.033,3.123-2.215,3.976-1.419,1.024-3.291-.184-4.394-1.646C674.064,217.79,675.18,209.385,668.966,208.206Z" transform="translate(-463.198 -141.211)" fill="#945b79"/><path d="M806.493,211.242c3.137,1.5,5.312,4.413,7.356,7.221,1.7,2.333,3.462,4.828,3.686,7.7a30.8,30.8,0,0,0,.138,3.535c.787,4.091,5.924,5.924,7.425,9.821a11.425,11.425,0,0,1,.171,5.822,78.547,78.547,0,0,1-1.774,8.337,11.1,11.1,0,0,0-.609,5.029,15.436,15.436,0,0,0,1.567,3.62c1.511,3.2,1.771,6.819,1.886,10.351s.112,7.125,1.168,10.5,3.387,6.556,6.747,7.645a7.928,7.928,0,0,1-3.8,1.349,3.17,3.17,0,0,0,1.317,2.923,9.594,9.594,0,0,0,3.034,1.405,5.727,5.727,0,0,1-5.042.777,11.3,11.3,0,0,1-3.689-2.416l-6.309-5.427a17.811,17.811,0,0,1-2.327-2.264c-4.081-5.072-1.646-12.757-3.923-18.849-1.856-4.953-6.846-8.975-6.388-14.244a18.591,18.591,0,0,1,1.165-4.279,36.423,36.423,0,0,0-3.834-30.878A7.307,7.307,0,0,0,801.7,216.1c-1.827-.872-4.437-.5-5.473-2.238a8.688,8.688,0,0,1-.708-3.564A18.2,18.2,0,0,1,806.493,211.242Z" transform="translate(-550.64 -153.814)" fill="#945b79"/><path d="M341.286,362.565a11.98,11.98,0,0,1,20.912-6.043,26.283,26.283,0,0,1,4.637,7.162c3.291,8.31,3.538,9.051,3.538,9.051s-20.323,3.949-20.158,6.911L341,364.919S341.069,364,341.286,362.565Z" transform="translate(-245.71 -249.415)" opacity="0.1"/><path d="M341.286,359.565a11.98,11.98,0,0,1,20.912-6.043,26.283,26.283,0,0,1,4.637,7.162c3.291,8.31,3.538,9.051,3.538,9.051s-20.323,3.949-20.158,6.911L341,361.919S341.069,361,341.286,359.565Z" transform="translate(-245.71 -247.402)" fill="#dce6f2"/><path d="M359.25,340.89c.247.411,9.956,12.26,15.057,13.948S359.25,340.89,359.25,340.89Z" transform="translate(-257.954 -241.717)" opacity="0.1"/><path d="M232.5,457.27s25.671,30.279,28.962,42.538" transform="translate(-172.92 -319.794)" opacity="0.1"/><path d="M235.5,372.27s5.6,28.962,16.456,41.14,22.051,32.912,22.051,32.912" transform="translate(-174.932 -262.769)" fill="none" stroke="#000" stroke-miterlimit="10" stroke-width="2" opacity="0.1"/><g transform="translate(93.911 57.056)" opacity="0.1"><path d="M451.62,244.24a3.923,3.923,0,0,1-.935,2.633,3.153,3.153,0,0,1-3.9.5c-.352-.224-.7-.536-1.119-.5a1.359,1.359,0,0,0-.658.3c-1.853,1.356-3.255,3.541-5.43,4.144a3.8,3.8,0,0,1-.171,1.728c2.37-.457,3.818-2.8,5.766-4.226a1.359,1.359,0,0,1,.658-.3c.418-.036.767.276,1.119.5a3.153,3.153,0,0,0,3.9-.5A4.859,4.859,0,0,0,451.62,244.24Z" transform="translate(-405.643 -233.932)"/><path d="M472.44,217.054c.026.27.072.536.125.8,0-1.646.392-3.357,0-4.937C472.571,214.263,472.3,215.685,472.44,217.054Z" transform="translate(-427.775 -212.92)"/><path d="M370.512,245.365a4.466,4.466,0,0,1-3.9,1.251,1.9,1.9,0,0,0,.053-1.293,38.292,38.292,0,0,1-5.193,2.409l-.188-.945c-2.521,1.231-2.324,5.407-4.845,6.638-1.5.734-3.62.2-4.657,1.527-.23.3-.365.658-.576.987-.823,1.26-2.6,1.534-4.068,1.2a9.45,9.45,0,0,1-5.727-4.539,28.137,28.137,0,0,1-2.672-6.994l-1.343-4.743c-.22-.79-.444-1.58-.589-2.386a4.827,4.827,0,0,0,.036.724,18.476,18.476,0,0,0,.717,3.308l1.343,4.743a28.011,28.011,0,0,0,2.672,6.994,9.478,9.478,0,0,0,5.727,4.539c1.468.329,3.245.059,4.068-1.2.211-.329.346-.681.576-.987,1.02-1.316,3.156-.793,4.657-1.527,2.521-1.231,2.324-5.407,4.845-6.638l.188.945a38.3,38.3,0,0,0,5.184-2.409,1.9,1.9,0,0,1-.053,1.293,4.466,4.466,0,0,0,3.745-1.112A3.8,3.8,0,0,0,370.512,245.365Z" transform="translate(-336.81 -230.068)"/></g><path d="M378.04,311.131c-1.771,1.02-5.885,3.291-6.717,2.9-.889-.411-10.584-3.8-13.823-4.937.214-1.1.987-3.9,3.551-4.815a3.4,3.4,0,0,1,1.59-.043l9.834,3.89C375.23,309.528,377.517,310.828,378.04,311.131Z" transform="translate(-256.78 -217.079)" opacity="0.1"/><path d="M378.04,308.131c-1.771,1.02-5.885,3.291-6.717,2.9-.889-.411-10.584-3.8-13.823-4.937.214-1.1.987-3.9,3.551-4.815a3.4,3.4,0,0,1,1.59-.043l9.834,3.89C375.23,306.528,377.517,307.828,378.04,308.131Z" transform="translate(-256.78 -215.066)" fill="#dce6f2"/><path d="M714.551,227.444a26.347,26.347,0,0,1-2.143,10.66c-2.758,5.789-8.909,9.235-14.642,8.2a4.556,4.556,0,0,1-2.139-.859,5.594,5.594,0,0,1-1.382-2c-1.2-2.587-1.82-5.569-3.505-7.784s-5.1-3.179-6.73-.912c-.885,1.228-1.033,3.123-2.215,3.976-1.418,1.024-3.291-.184-4.394-1.646-3.258-4.279-2.143-12.694-8.356-13.872-1.007-.194-2.176-.168-2.85-1.037a3.986,3.986,0,0,1-.609-1.9c-.112-.793-.207-1.6-.263-2.416a23.978,23.978,0,0,0,.263,5.378,3.986,3.986,0,0,0,.609,1.9c.675.869,1.843.843,2.85,1.037,6.214,1.178,5.1,9.584,8.356,13.872,1.1,1.445,2.962,2.653,4.394,1.646,1.182-.852,1.317-2.748,2.215-3.976,1.626-2.268,5.045-1.3,6.73.912s2.3,5.2,3.505,7.784a5.594,5.594,0,0,0,1.382,2,4.555,4.555,0,0,0,2.139.859c5.733,1.037,11.884-2.409,14.642-8.2,1.9-3.989,2.222-8.7,2.149-13.227C714.551,227.694,714.551,227.562,714.551,227.444Z" transform="translate(-463.259 -159.172)" opacity="0.1"/><g transform="translate(245.298 59.544)" opacity="0.1"><path d="M875.655,290.887a11.423,11.423,0,0,1,.171,5.822,78.521,78.521,0,0,1-1.774,8.33,11.1,11.1,0,0,0-.609,5.029,15.431,15.431,0,0,0,1.567,3.62c1.511,3.2,1.771,6.819,1.886,10.351s.112,7.125,1.168,10.5a12.961,12.961,0,0,0,3.778,5.957,13.883,13.883,0,0,1-2.133-4.186c-1.057-3.37-1.057-6.964-1.168-10.5s-.375-7.155-1.886-10.348a15.944,15.944,0,0,1-1.567-3.62,11.252,11.252,0,0,1,.609-5.032,78.5,78.5,0,0,0,1.774-8.353,11.438,11.438,0,0,0-.171-5.825,10.73,10.73,0,0,0-2.821-3.762A7.687,7.687,0,0,1,875.655,290.887Z" transform="translate(-848.141 -266.362)"/><path d="M902.037,453.647a8.6,8.6,0,0,1-2.449-1.277,7.958,7.958,0,0,1-2.995.869,3.17,3.17,0,0,0,1.317,2.923,4.57,4.57,0,0,0,.559.385,2.634,2.634,0,0,1-.221-1.55A8,8,0,0,0,902.037,453.647Z" transform="translate(-863.721 -376.051)"/><path d="M800.9,221.6c-1.254-.6-2.876-.612-4.107-1.122a3.367,3.367,0,0,0,.28.658c1.037,1.738,3.647,1.363,5.473,2.238a4.493,4.493,0,0,1,.658.4A6.335,6.335,0,0,0,800.9,221.6Z" transform="translate(-796.79 -220.48)"/><path d="M876.333,452.805a5.717,5.717,0,0,1-3.979.188,11.3,11.3,0,0,1-3.689-2.416l-6.309-5.427c-.3-.257-.6-.517-.885-.78.066.089.132.181.2.27A17.6,17.6,0,0,0,864,446.9l6.309,5.43A11.357,11.357,0,0,0,874,454.75a5.727,5.727,0,0,0,5.042-.78,10.659,10.659,0,0,1-2.709-1.165Z" transform="translate(-840.183 -370.684)"/><path d="M841.319,224.633c1.7,2.333,3.462,4.828,3.686,7.7a30.768,30.768,0,0,0,.138,3.535,8.8,8.8,0,0,0,3.011,4.571,6.5,6.5,0,0,1-1.366-2.814,30.883,30.883,0,0,1-.138-3.538c-.224-2.876-1.975-5.371-3.686-7.7a35.2,35.2,0,0,0-4.045-4.881C839.766,222.511,840.552,223.577,841.319,224.633Z" transform="translate(-825.054 -221.171)"/></g><path d="M801.651,210.27s-1.975,3.291,3.62,6.033l.329-.879Z" transform="translate(-554.526 -154.086)" opacity="0.1"/><path d="M800.651,210.27s-1.975,3.291,3.62,6.033l.329-.879Z" transform="translate(-553.855 -154.086)" fill="#ff6584"/><path d="M1027.9,776.26s1.81,2.366-.833,5.924-4.822,6.582-3.949,8.81c0,0,3.989-6.632,7.241-6.724S1031.475,780.249,1027.9,776.26Z" transform="translate(-703.203 -533.799)" fill="#6c63ff"/><path d="M1028.121,776.26a2.982,2.982,0,0,1,.372.741c3.166,3.722,4.851,7.194,1.807,7.28-2.834.082-6.233,5.151-7.05,6.431.026.1.059.194.1.293,0,0,3.989-6.632,7.24-6.724S1031.692,780.249,1028.121,776.26Z" transform="translate(-703.42 -533.799)" opacity="0.1"/><path d="M1047.418,784.321c0,.833-.1,1.507-.211,1.507s-.207-.658-.207-1.507.115-.441.23-.441S1047.418,783.489,1047.418,784.321Z" transform="translate(-719.353 -538.846)" fill="#ffd037"/><path d="M1048.865,787.273c-.731.4-1.369.638-1.422.536s.49-.507,1.221-.905.444-.109.5,0S1049.6,786.875,1048.865,787.273Z" transform="translate(-719.648 -540.804)" fill="#ffd037"/><path d="M1000.724,776.26s-1.81,2.366.833,5.924,4.822,6.582,3.949,8.81c0,0-3.986-6.632-7.241-6.724S997.166,780.249,1000.724,776.26Z" transform="translate(-685.584 -533.799)" fill="#6c63ff"/><path d="M1000.709,776.26a2.974,2.974,0,0,0-.372.741c-3.166,3.722-4.851,7.194-1.807,7.28,2.834.082,6.234,5.151,7.05,6.431a2.556,2.556,0,0,1-.1.293s-3.986-6.632-7.24-6.724S997.152,780.249,1000.709,776.26Z" transform="translate(-685.569 -533.799)" opacity="0.1"/><path d="M998.82,784.321c0,.833.1,1.507.211,1.507s.207-.658.207-1.507-.115-.441-.23-.441S998.82,783.489,998.82,784.321Z" transform="translate(-687.03 -538.846)" fill="#ffd037"/><path d="M994.412,787.273c.731.4,1.366.638,1.422.536s-.49-.507-1.221-.905-.444-.109-.5,0S993.681,786.875,994.412,787.273Z" transform="translate(-683.774 -540.804)" fill="#ffd037"/><path d="M1000.57,814.54s5.055-.158,6.582-1.241,7.777-2.383,8.156-.658,7.6,8.652,1.889,8.7-13.26-.889-14.781-1.813S1000.57,814.54,1000.57,814.54Z" transform="translate(-688.204 -557.644)" fill="#a8a8a8"/><path d="M1017.3,826.327c-5.707.046-13.26-.889-14.781-1.813-1.158-.708-1.619-3.239-1.774-4.4h-.171s.329,4.078,1.843,5.006,9.074,1.859,14.781,1.813c1.646,0,2.215-.6,2.185-1.468C1019.142,826,1018.52,826.327,1017.3,826.327Z" transform="translate(-688.204 -563.217)" opacity="0.2"/><path d="M289.144,790.058a3.844,3.844,0,0,0,1.264-1.9,1.7,1.7,0,0,0-.882-1.942c-.81-.309-1.675.253-2.33.819a3.112,3.112,0,0,1-2.268,1.093,3.446,3.446,0,0,0,1.066-3.229,1.356,1.356,0,0,0-.3-.658c-.448-.48-1.264-.273-1.8.105-1.711,1.2-2.189,3.528-2.2,5.618a10.364,10.364,0,0,1-.033-2.3,2.37,2.37,0,0,0-.869-2.047,2.633,2.633,0,0,0-1.316-.329,2.741,2.741,0,0,0-2.152.612,2.117,2.117,0,0,0,.086,2.633,8.538,8.538,0,0,0,2.225,1.784,4.936,4.936,0,0,1,1.593,1.517,1.587,1.587,0,0,1,.119.273h4.8A13.419,13.419,0,0,0,289.144,790.058Z" transform="translate(-202.711 -538.965)" fill="#6c63ff"/><path d="M193.963,716.1s-4.608-15.7.866-27.258a24.819,24.819,0,0,0,2.008-15.557,41.884,41.884,0,0,0-2.205-7.3" transform="translate(-145.849 -459.814)" fill="none" stroke="#535461" stroke-miterlimit="10" stroke-width="2"/><path d="M195.871,636.685c0,1.922-3.485,7.5-3.485,7.5s-3.485-5.595-3.485-7.5a3.485,3.485,0,1,1,6.971,0Z" transform="translate(-143.669 -437.823)" fill="#6c63ff"/><path d="M213.3,665.207c-1.047,1.616-7,4.407-7,4.407s.105-6.582,1.152-8.192a3.485,3.485,0,1,1,5.852,3.785Z" transform="translate(-155.343 -455.688)" fill="#6c63ff"/><path d="M209.951,718.071c-1.718.866-8.271.267-8.271.267s3.416-5.621,5.134-6.49a3.485,3.485,0,1,1,3.137,6.224Z" transform="translate(-152.243 -490.335)" fill="#6c63ff"/><path d="M200.276,760.2c-1.547,1.145-8.106,1.646-8.106,1.646s2.416-6.118,3.949-7.264a3.485,3.485,0,1,1,4.144,5.6Z" transform="translate(-145.863 -518.724)" fill="#6c63ff"/><path d="M181.769,678.363c1.379,1.343,7.81,2.732,7.81,2.732s-1.576-6.388-2.962-7.731a3.485,3.485,0,1,0-4.854,5Z" transform="translate(-138.128 -464.065)" fill="#6c63ff"/><path d="M169.1,726.219c1.718.866,8.271.27,8.271.27s-3.413-5.625-5.134-6.49a3.483,3.483,0,1,0-3.137,6.22Z" transform="translate(-129.097 -495.803)" fill="#6c63ff"/><path d="M166.166,776.087c1.547,1.142,8.106,1.646,8.106,1.646s-2.416-6.122-3.949-7.267a3.485,3.485,0,0,0-4.144,5.595Z" transform="translate(-127.57 -529.518)" fill="#6c63ff"/><path d="M195.871,636.685c0,1.922-3.485,7.5-3.485,7.5s-3.485-5.595-3.485-7.5a3.485,3.485,0,1,1,6.971,0Z" transform="translate(-143.669 -437.823)" fill="#6c63ff"/><path d="M213.3,665.207c-1.047,1.616-7,4.407-7,4.407s.105-6.582,1.152-8.192a3.485,3.485,0,1,1,5.852,3.785Z" transform="translate(-155.343 -455.688)" fill="#6c63ff"/><path d="M209.951,718.071c-1.718.866-8.271.267-8.271.267s3.416-5.621,5.134-6.49a3.485,3.485,0,1,1,3.137,6.224Z" transform="translate(-152.243 -490.335)" fill="#6c63ff"/><path d="M200.276,760.2c-1.547,1.145-8.106,1.646-8.106,1.646s2.416-6.118,3.949-7.264a3.485,3.485,0,1,1,4.144,5.6Z" transform="translate(-145.863 -518.724)" fill="#6c63ff"/><path d="M181.769,678.363c1.379,1.343,7.81,2.732,7.81,2.732s-1.576-6.388-2.962-7.731a3.485,3.485,0,1,0-4.854,5Z" transform="translate(-138.128 -464.065)" fill="#6c63ff"/><path d="M169.1,726.219c1.718.866,8.271.27,8.271.27s-3.413-5.625-5.134-6.49a3.483,3.483,0,1,0-3.137,6.22Z" transform="translate(-129.097 -495.803)" fill="#6c63ff"/><path d="M166.166,776.087c1.547,1.142,8.106,1.646,8.106,1.646s-2.416-6.122-3.949-7.267a3.485,3.485,0,0,0-4.144,5.595Z" transform="translate(-127.57 -529.518)" fill="#6c63ff"/><path d="M164.45,804.061s5.631-1.119,7.132-2.61,8.261-4.1,9.011-2.238,10.137,8.2,3.755,9.321-15.018,1.491-16.9.744S164.45,804.061,164.45,804.061Z" transform="translate(-127.266 -548.765)" fill="#a8a8a8"/><path d="M184.348,818.958c-6.385,1.119-15.018,1.491-16.9.747-1.428-.569-2.422-3.291-2.814-4.565l-.188.039s1.126,4.473,3,5.217,10.512.375,16.9-.744c1.84-.329,2.366-1.083,2.169-2.041C186.353,818.237,185.718,818.714,184.348,818.958Z" transform="translate(-127.266 -559.883)" opacity="0.2"/></g></svg>