<svg xmlns="http://www.w3.org/2000/svg" width="67.583" height="93" viewBox="0 0 67.583 93"><g transform="translate(-641.55 -159)"><path d="M709.132,243.124V169.491c0-10.49-9.078-10.491-9.078-10.491H650.225c-8.675,0-8.675,8.876-8.675,8.876v57.7A3.207,3.207,0,0,0,645.383,229h16.946c2.825,0,2.421,3.228,2.421,3.228v15.938c0,3.833,3.833,3.833,3.833,3.833h32.076C709.334,252,709.132,243.124,709.132,243.124Z" transform="translate(0)" fill="#35c8cb"/><path d="M663.161,804.756H646.82l18.357,18.156V806.572A1.764,1.764,0,0,0,663.161,804.756Z" transform="translate(-4.664 -571.518)" fill="#35c8cb"/></g></svg>