<svg id="artwork" xmlns="http://www.w3.org/2000/svg" viewBox="0 0 155 60"><defs><style>.cls-1{fill:#a6a6a6;}.cls-2{fill:#fff;}</style></defs><title>Download_on_iTunes</title><path class="cls-1" d="M128.2,10H24.77a13.66,13.66,0,0,0-2,.18,6.56,6.56,0,0,0-1.92.63A6.28,6.28,0,0,0,19.2,12,6.19,6.19,0,0,0,18,13.63a6.4,6.4,0,0,0-.63,1.91,12.2,12.2,0,0,0-.19,2c0,.3,0,.61,0,.92V41.55c0,.31,0,.61,0,.92a12.2,12.2,0,0,0,.19,2,6.44,6.44,0,0,0,.63,1.9A6,6,0,0,0,19.2,48a6.28,6.28,0,0,0,1.63,1.18,6.87,6.87,0,0,0,1.92.63,13.66,13.66,0,0,0,2,.18H130.23a13.53,13.53,0,0,0,2-.18,6.93,6.93,0,0,0,1.93-.63A6.55,6.55,0,0,0,137,46.37a6.72,6.72,0,0,0,.62-1.9,13.41,13.41,0,0,0,.19-2v-.92c0-.37,0-.73,0-1.1V19.55c0-.37,0-.73,0-1.09v-.92a13.41,13.41,0,0,0-.19-2,6.68,6.68,0,0,0-.62-1.91,6.44,6.44,0,0,0-2.82-2.79,6.93,6.93,0,0,0-1.93-.63,13.53,13.53,0,0,0-2-.18h-2Z"/><path d="M25.7,49.11h-.91a13.14,13.14,0,0,1-1.88-.17,5.75,5.75,0,0,1-1.67-.55,5.43,5.43,0,0,1-1.41-1,5.23,5.23,0,0,1-1-1.4,5.73,5.73,0,0,1-.55-1.65,13.13,13.13,0,0,1-.17-1.87c0-.22,0-.92,0-.92V18.46s0-.69,0-.9a13.13,13.13,0,0,1,.17-1.87A5.69,5.69,0,0,1,18.8,14a5.2,5.2,0,0,1,1-1.39,5.55,5.55,0,0,1,1.42-1,6,6,0,0,1,1.66-.54,12.05,12.05,0,0,1,1.89-.16l.91,0H129.29l.92,0a11.83,11.83,0,0,1,1.88.16,5.91,5.91,0,0,1,1.68.55A5.55,5.55,0,0,1,136.2,14a5.42,5.42,0,0,1,.54,1.65,11.86,11.86,0,0,1,.18,1.89v.89c0,.37,0,.73,0,1.09v20.9c0,.37,0,.72,0,1.08v.93a12.72,12.72,0,0,1-.17,1.85A5.85,5.85,0,0,1,136.2,46a5.31,5.31,0,0,1-1,1.38,5.46,5.46,0,0,1-1.41,1,5.91,5.91,0,0,1-1.68.55,13.41,13.41,0,0,1-1.89.17H25.7Z"/><g id="_Group_" data-name=" Group "><g id="_Group_2" data-name=" Group 2"><g id="_Group_3" data-name=" Group 3"><path id="_Path_" data-name=" Path " class="cls-2" d="M42.16,30.3a5,5,0,0,1,2.37-4.15,5.12,5.12,0,0,0-4-2.15c-1.69-.18-3.33,1-4.2,1s-2.2-1-3.63-1a5.35,5.35,0,0,0-4.51,2.73c-2,3.34-.5,8.26,1.37,11,.93,1.33,2,2.81,3.45,2.75s1.92-.88,3.61-.88,2.16.88,3.62.85,2.45-1.33,3.35-2.67A10.82,10.82,0,0,0,45.1,34.7,4.78,4.78,0,0,1,42.16,30.3Z"/><path id="_Path_2" data-name=" Path 2" class="cls-2" d="M39.4,22.22a4.88,4.88,0,0,0,1.13-3.49,5,5,0,0,0-3.24,1.66,4.59,4.59,0,0,0-1.15,3.36A4.14,4.14,0,0,0,39.4,22.22Z"/></g></g><path class="cls-2" d="M59.83,37.13H55.06l-1.15,3.36h-2l4.52-12.41h2.1L63,40.49H61Zm-4.28-1.54h3.79l-1.87-5.45h0Z"/><path class="cls-2" d="M72.79,36c0,2.81-1.52,4.62-3.81,4.62A3.1,3.1,0,0,1,66.11,39h0v4.48H64.19v-12H66V33h0A3.24,3.24,0,0,1,69,31.35C71.26,31.35,72.79,33.16,72.79,36Zm-1.93,0c0-1.83-1-3-2.41-3s-2.39,1.23-2.39,3,1,3,2.39,3S70.86,37.81,70.86,36Z"/><path class="cls-2" d="M82.83,36c0,2.81-1.51,4.62-3.8,4.62A3.11,3.11,0,0,1,76.15,39h0v4.48H74.24v-12h1.81V33h0a3.21,3.21,0,0,1,2.9-1.6C81.31,31.35,82.83,33.16,82.83,36Zm-1.92,0c0-1.83-1-3-2.41-3s-2.4,1.23-2.4,3,1,3,2.4,3,2.41-1.2,2.41-3Z"/><path class="cls-2" d="M89.47,37c.14,1.23,1.35,2,3,2s2.71-.81,2.71-1.92-.68-1.54-2.31-1.93l-1.62-.39c-2.3-.55-3.36-1.62-3.36-3.35,0-2.14,1.88-3.61,4.55-3.61S96.9,29.34,97,31.48H95.07c-.11-1.23-1.15-2-2.66-2s-2.54.75-2.54,1.86c0,.87.66,1.39,2.27,1.78l1.38.34c2.57.6,3.64,1.62,3.64,3.44,0,2.32-1.87,3.77-4.83,3.77-2.78,0-4.65-1.42-4.77-3.66Z"/><path class="cls-2" d="M101.2,29.3v2.14h1.74v1.47H101.2v5c0,.77.35,1.13,1.11,1.13a4.3,4.3,0,0,0,.62,0v1.46a6,6,0,0,1-1,.09c-1.85,0-2.57-.69-2.57-2.44V32.91H98V31.44h1.33V29.3Z"/><path class="cls-2" d="M103.94,36c0-2.84,1.69-4.63,4.33-4.63s4.33,1.79,4.33,4.63-1.67,4.64-4.33,4.64S103.94,38.82,103.94,36Zm6.75,0c0-2-.9-3.1-2.42-3.1S105.85,34,105.85,36s.9,3.11,2.42,3.11,2.42-1.15,2.42-3.11Z"/><path class="cls-2" d="M114.14,31.44h1.79V33h0a2.18,2.18,0,0,1,2.2-1.63,2.73,2.73,0,0,1,.64.07v1.73A2.66,2.66,0,0,0,118,33a1.88,1.88,0,0,0-2,1.79,1.38,1.38,0,0,0,0,.29v5.37h-1.88Z"/><path class="cls-2" d="M127.45,37.83c-.25,1.64-1.87,2.77-3.93,2.77-2.66,0-4.3-1.77-4.3-4.59s1.65-4.68,4.22-4.68,4.11,1.72,4.11,4.46v.64h-6.44v.11a2.35,2.35,0,0,0,2.15,2.55h.3a2.06,2.06,0,0,0,2.11-1.27Zm-6.33-2.7h4.56a2.17,2.17,0,0,0-2.07-2.29h-.17a2.3,2.3,0,0,0-2.32,2.28Z"/></g><g id="_Group_4" data-name=" Group 4"><path class="cls-2" d="M55.32,18.74a2.65,2.65,0,0,1,2.84,2.44,2.25,2.25,0,0,1,0,.52c0,1.91-1,3-2.83,3H53.15v-6Zm-1.24,5.12h1.13a1.88,1.88,0,0,0,2-1.76,1.6,1.6,0,0,0,0-.38,1.89,1.89,0,0,0-1.62-2.12,2.23,2.23,0,0,0-.37,0H54.08Z"/><path class="cls-2" d="M59.2,22.45a2.15,2.15,0,0,1,4.28-.4,1.34,1.34,0,0,1,0,.4,2.15,2.15,0,0,1-4.28.42A2.94,2.94,0,0,1,59.2,22.45Zm3.36,0c0-1-.44-1.54-1.21-1.54s-1.22.57-1.22,1.54S60.57,24,61.35,24s1.21-.57,1.21-1.55Z"/><path class="cls-2" d="M69.18,24.7h-.93l-.94-3.31h-.07L66.3,24.7h-.92l-1.25-4.5H65l.81,3.44h.07l.93-3.44h.86l.94,3.44h.07l.81-3.44h.89Z"/><path class="cls-2" d="M71.47,20.2h.87v.72h.06a1.36,1.36,0,0,1,1.36-.8,1.47,1.47,0,0,1,1.58,1.35,1.71,1.71,0,0,1,0,.32V24.7h-.9V22c0-.72-.31-1.08-1-1.08a1.05,1.05,0,0,0-1.09,1,.81.81,0,0,0,0,.16V24.7h-.9Z"/><path class="cls-2" d="M76.76,18.45h.89V24.7h-.89Z"/><path class="cls-2" d="M78.9,22.45a2.15,2.15,0,0,1,4.28-.4,2.67,2.67,0,0,1,0,.4,2.15,2.15,0,0,1-4.28.41A1.41,1.41,0,0,1,78.9,22.45Zm3.36,0c0-1-.45-1.54-1.22-1.54s-1.22.57-1.22,1.54S80.26,24,81,24,82.26,23.43,82.26,22.45Z"/><path class="cls-2" d="M84.12,23.43c0-.81.61-1.28,1.69-1.34L87,22v-.39c0-.48-.32-.74-.93-.74s-.85.18-1,.5H84.3c.09-.78.82-1.27,1.85-1.27s1.78.56,1.78,1.51V24.7h-.86v-.63H87a1.57,1.57,0,0,1-1.37.71,1.37,1.37,0,0,1-1.5-1.21A.66.66,0,0,1,84.12,23.43ZM87,23.05v-.38l-1.11.07c-.62,0-.91.25-.91.65s.36.64.84.64a1.08,1.08,0,0,0,1.18-1Z"/><path class="cls-2" d="M89.11,22.45c0-1.42.74-2.32,1.88-2.32a1.49,1.49,0,0,1,1.39.79h.07V18.45h.9V24.7h-.86V24h-.07a1.58,1.58,0,0,1-1.43.79C89.84,24.78,89.11,23.88,89.11,22.45Zm.92,0c0,1,.46,1.53,1.22,1.53s1.22-.58,1.22-1.52-.47-1.53-1.22-1.53S90,21.51,90,22.45Z"/><path class="cls-2" d="M97.05,22.45a2.15,2.15,0,0,1,4.28-.4,1.34,1.34,0,0,1,0,.4,2.15,2.15,0,0,1-4.28.42A2.94,2.94,0,0,1,97.05,22.45Zm3.36,0c0-1-.44-1.54-1.21-1.54S98,21.48,98,22.45,98.42,24,99.2,24,100.41,23.43,100.41,22.45Z"/><path class="cls-2" d="M102.54,20.2h.86v.72h.07a1.34,1.34,0,0,1,1.35-.8,1.47,1.47,0,0,1,1.58,1.35,1.15,1.15,0,0,1,0,.32V24.7h-.9V22c0-.72-.31-1.08-1-1.08a1,1,0,0,0-1.09,1,.85.85,0,0,0,0,.16V24.7h-.89Z"/><path class="cls-2" d="M111.45,19.08v1.15h1V21h-1v2.32c0,.47.2.67.64.67a2.06,2.06,0,0,0,.35,0v.74a2.81,2.81,0,0,1-.49.05c-1,0-1.39-.35-1.39-1.22V21h-.72v-.74h.72V19.08Z"/><path class="cls-2" d="M113.66,18.45h.89v2.48h.07a1.4,1.4,0,0,1,1.38-.81,1.5,1.5,0,0,1,1.58,1.4,2.62,2.62,0,0,1,0,.28v2.9h-.9V22c0-.72-.34-1.08-1-1.08a1.06,1.06,0,0,0-1.15,1,1.09,1.09,0,0,0,0,.18V24.7h-.9Z"/><path class="cls-2" d="M122.79,23.49a1.84,1.84,0,0,1-2,1.3,2,2,0,0,1-2.11-2,1.82,1.82,0,0,1,0-.33,2.08,2.08,0,0,1,1.8-2.33,1.51,1.51,0,0,1,.3,0c1.26,0,2,.85,2,2.27v.31h-3.2v.05A1.19,1.19,0,0,0,120.73,24h.12a1.09,1.09,0,0,0,1.08-.54ZM119.64,22h2.29a1.09,1.09,0,0,0-1-1.16h-.11A1.16,1.16,0,0,0,119.64,22v0Z"/></g></svg>