<svg xmlns="http://www.w3.org/2000/svg" width="150" height="76.7" viewBox="0 0 150 76.7"><path d="M524.252,409.382C480.711,383.371,449,399.687,449,399.687c16.492-.745,35.612,6.247,50.436,13.372a32.268,32.268,0,0,0-11.089,6.808,29.069,29.069,0,0,0-9.4,21.319,28.649,28.649,0,0,0,.737,6.463c-6.768-5.789-14.27-14.748-15.083-26.444,0,7.094-1.258,32.4,27.685,44.455v0a33.672,33.672,0,0,0,41.441-3.152,29.065,29.065,0,0,0,9.4-21.319c0-.473-.013-.946-.035-1.414,36.82,20.873,49.377,4.831,55.908-1.305C579.621,448.162,567.792,435.393,524.252,409.382Zm6.8,31.8c0,10.383-8.957,18.8-20.008,18.8s-20.008-8.416-20.008-18.8,8.957-18.8,20.008-18.8a20.965,20.965,0,0,1,8.806,1.918c2.283,1.445,3.742,2.462,4.155,2.811.539.4,1.072.8,1.606,1.189A18.144,18.144,0,0,1,531.047,441.186Z" transform="translate(-449 -394.635)" fill="#35c8cb"/></svg>