<?xml version="1.0" encoding="utf-8"?>
<!-- Generator: Adobe Illustrator 23.0.0, SVG Export Plug-In . SVG Version: 6.00 Build 0)  -->
<svg version="1.1" id="Layer_1" xmlns="http://www.w3.org/2000/svg" xmlns:xlink="http://www.w3.org/1999/xlink" x="0px" y="0px"
	 viewBox="0 0 150 76.7" style="enable-background:new 0 0 150 76.7;" xml:space="preserve">
<path d="M75,0C49.4,0,27.6,15.9,18.8,38.3C27.6,60.8,49.4,76.7,75,76.7s47.4-15.9,56.2-38.3C122.4,15.9,100.6,0,75,0z M75,63.9
	c-14.1,0-25.6-11.5-25.6-25.6S60.9,12.8,75,12.8s25.6,11.5,25.6,25.6S89.1,63.9,75,63.9z M75,23c-8.5,0-15.3,6.9-15.3,15.3
	S66.5,53.7,75,53.7s15.3-6.9,15.3-15.3S83.5,23,75,23z"/>
</svg>
