<svg xmlns="http://www.w3.org/2000/svg" width="24.475" height="24.426" viewBox="0 0 24.475 24.426"><g transform="translate(0 -0.316)"><path d="M231.816,349.553c1.872-.266,3.512-2.219,4.545-5.1a22.218,22.218,0,0,0-4.545-.535Zm0,0" transform="translate(-219.141 -324.811)" fill="#b2b2b2"/><path d="M279.879,362.044c.111-.032.221-.064.33-.1.092-.03.183-.062.274-.094.108-.037.215-.075.322-.116.091-.035.181-.071.271-.108l.311-.131c.09-.039.179-.081.268-.123s.2-.1.3-.146.175-.09.262-.137.2-.106.292-.161.172-.1.257-.151l.283-.175c.084-.053.168-.108.25-.164s.183-.127.274-.192.162-.116.242-.175.177-.137.265-.207.156-.124.232-.188.171-.148.256-.223.149-.131.222-.2.165-.159.246-.239.142-.138.211-.21l.038-.041a14.7,14.7,0,0,0-3-1.153,10.854,10.854,0,0,1-2.8,4.539l.106-.026C279.7,362.1,279.788,362.072,279.879,362.044Zm0,0" transform="translate(-264.214 -337.761)" fill="#b2b2b2"/><path d="M341.687,231.684h-5.245a22.685,22.685,0,0,1-.883,6.052,15.216,15.216,0,0,1,3.32,1.321,12.221,12.221,0,0,0,2.808-7.373Zm0,0" transform="translate(-317.212 -218.717)" fill="#b2b2b2"/><path d="M231.816,114.778H237.5a21.881,21.881,0,0,0-.861-5.836,23.039,23.039,0,0,1-4.819.575Zm0,0" transform="translate(-219.141 -102.686)" fill="#b2b2b2"/><path d="M231.816.316V5.956a22.231,22.231,0,0,0,4.545-.535c-1.032-2.885-2.673-4.838-4.545-5.1Zm0,0" transform="translate(-219.141)" fill="#b2b2b2"/><path d="M231.816,236.945a23.052,23.052,0,0,1,4.819.575,21.882,21.882,0,0,0,.861-5.837h-5.681Zm0,0" transform="translate(-219.141 -218.717)" fill="#b2b2b2"/><path d="M338.878,80.844a15.214,15.214,0,0,1-3.32,1.321,22.684,22.684,0,0,1,.883,6.052h5.245a12.224,12.224,0,0,0-2.808-7.373Zm0,0" transform="translate(-317.211 -76.124)" fill="#b2b2b2"/><path d="M285.253,10.182l-.038-.041c-.069-.071-.141-.14-.211-.21s-.162-.161-.246-.239-.147-.131-.222-.2-.17-.151-.257-.224-.153-.125-.23-.186-.177-.141-.267-.209-.159-.117-.24-.175-.183-.131-.276-.194-.165-.109-.248-.162-.189-.12-.285-.178-.17-.1-.255-.149-.2-.11-.295-.163-.175-.091-.262-.135-.2-.1-.306-.148q-.131-.062-.267-.122c-.1-.046-.208-.087-.313-.131s-.18-.073-.271-.108c-.106-.041-.214-.079-.321-.116-.091-.032-.182-.064-.274-.094-.109-.035-.219-.068-.331-.1-.091-.027-.182-.054-.274-.078l-.107-.026a10.855,10.855,0,0,1,2.8,4.539,14.679,14.679,0,0,0,3-1.154Zm0,0" transform="translate(-264.177 -6.126)" fill="#b2b2b2"/><path d="M0,88.216H5.245a22.693,22.693,0,0,1,.883-6.052,15.194,15.194,0,0,1-3.319-1.321A12.221,12.221,0,0,0,0,88.216Zm0,0" transform="translate(0 -76.124)" fill="#b2b2b2"/><path d="M137.24,349.553v-5.639a22.233,22.233,0,0,0-4.545.535c1.032,2.885,2.673,4.838,4.545,5.1Zm0,0" transform="translate(-125.44 -324.811)" fill="#b2b2b2"/><path d="M117.6,231.684h-5.681a21.874,21.874,0,0,0,.861,5.837,23.024,23.024,0,0,1,4.819-.575Zm0,0" transform="translate(-105.802 -218.717)" fill="#b2b2b2"/><path d="M137.24.316c-1.872.266-3.513,2.219-4.545,5.1a22.2,22.2,0,0,0,4.545.535Zm0,0" transform="translate(-125.44)" fill="#b2b2b2"/><path d="M117.6,109.516a23.04,23.04,0,0,1-4.819-.575,21.873,21.873,0,0,0-.861,5.836H117.6Zm0,0" transform="translate(-105.802 -102.686)" fill="#b2b2b2"/><path d="M67.983,6.789l-.106.026c-.093.025-.184.052-.276.079-.11.032-.219.064-.329.1-.093.03-.184.062-.276.094-.107.038-.214.075-.32.116s-.182.071-.272.108l-.311.131c-.09.04-.179.081-.268.123s-.2.1-.3.147-.175.09-.262.137-.2.106-.292.161-.174.1-.258.15-.189.116-.283.175-.168.108-.25.164-.183.127-.274.192-.162.116-.242.175-.175.137-.265.207-.156.124-.232.188-.171.147-.255.222-.15.131-.223.2-.164.158-.245.238-.142.138-.211.21l-.038.041a14.685,14.685,0,0,0,3,1.154,10.851,10.851,0,0,1,2.794-4.537Zm0,0" transform="translate(-58.791 -6.119)" fill="#b2b2b2"/><path d="M62.476,358.966c.081.08.162.161.246.239s.147.131.222.2.17.151.257.224.153.125.23.186.175.141.268.21.159.116.239.175.184.131.277.194.165.109.248.162.189.12.285.178.17.1.255.149.2.11.295.163.175.091.262.135.2.1.306.148q.131.062.267.122c.1.046.208.087.313.131s.18.073.271.108c.106.041.214.079.321.116.091.032.182.064.274.094.109.035.219.068.331.1.091.027.182.054.274.078l.107.026a10.857,10.857,0,0,1-2.8-4.54,14.688,14.688,0,0,0-3,1.154l.038.041c.066.071.136.14.208.209Zm0,0" transform="translate(-58.828 -337.713)" fill="#b2b2b2"/><path d="M2.808,239.055a15.217,15.217,0,0,1,3.319-1.321,22.692,22.692,0,0,1-.883-6.052H0A12.223,12.223,0,0,0,2.808,239.055Zm0,0" transform="translate(0 -218.716)" fill="#b2b2b2"/></g></svg>