<svg xmlns="http://www.w3.org/2000/svg" xmlns:xlink="http://www.w3.org/1999/xlink" width="357.41" height="481.41" viewBox="0 0 357.41 481.41">
  <defs>
    <linearGradient id="linear-gradient" x1="0.5" x2="0.5" y2="1" gradientUnits="objectBoundingBox">
      <stop offset="0"/>
      <stop offset="1" stop-color="#545454"/>
    </linearGradient>
    <clipPath id="clip-path">
      <path id="Path_1505" data-name="Path 1505" d="M78,0A36.559,36.559,0,0,0,55.81,40.31l72.4,403.46a36.554,36.554,0,0,0,42.43,29.52L357.4,439.78V0Z" fill="url(#linear-gradient)"/>
    </clipPath>
    <clipPath id="clip-path-2">
      <rect id="Rectangle_1683" data-name="Rectangle 1683" width="312.16" height="483.86" transform="translate(50.24 -5)" fill="url(#linear-gradient)"/>
    </clipPath>
    <linearGradient id="linear-gradient-5" x1="0.5" x2="0.5" y2="1" gradientUnits="objectBoundingBox">
      <stop offset="0" stop-color="#f88736"/>
      <stop offset="1" stop-color="#fb4f42"/>
    </linearGradient>
    <clipPath id="clip-path-3">
      <path id="Path_1506" data-name="Path 1506" d="M139.87,0,10.71,129.16a36.563,36.563,0,0,0,0,51.71L300.54,470.7a36.563,36.563,0,0,0,51.71,0l5.16-5.16V0Z" fill="url(#linear-gradient)"/>
    </clipPath>
    <clipPath id="clip-path-4">
      <rect id="Rectangle_1685" data-name="Rectangle 1685" width="367.4" height="491.4" transform="translate(-5 -5)" fill="url(#linear-gradient)"/>
    </clipPath>
    <linearGradient id="linear-gradient-6" x1="0.414" y1="-0.125" x2="0.758" y2="0.65" gradientUnits="objectBoundingBox">
      <stop offset="0" stop-color="#35c8cb"/>
      <stop offset="1" stop-color="#6166d2"/>
    </linearGradient>
  </defs>
  <g id="Group_489" data-name="Group 489" transform="translate(-870 -172)">
    <g id="Group_463" data-name="Group 463" transform="translate(870 172)">
      <g id="Group_462" data-name="Group 462">
        <g id="Group_461" data-name="Group 461" clip-path="url(#clip-path)">
          <g id="Group_460" data-name="Group 460">
            <g id="Group_459" data-name="Group 459" clip-path="url(#clip-path-2)">
              <path id="Path_1511" data-name="Path 1511" d="M0,0H312.96V484.32H0Z" transform="translate(49.883 -5.28)" fill="url(#linear-gradient-5)"/>
            </g>
          </g>
        </g>
      </g>
    </g>
    <g id="Group_468" data-name="Group 468" transform="translate(870 172)">
      <g id="Group_467" data-name="Group 467">
        <g id="Group_466" data-name="Group 466" clip-path="url(#clip-path-3)">
          <g id="Group_465" data-name="Group 465">
            <g id="Group_464" data-name="Group 464" clip-path="url(#clip-path-4)">
              <rect id="Rectangle_1684" data-name="Rectangle 1684" width="368.16" height="492" transform="translate(-5.317 -5.28)" fill="url(#linear-gradient-6)"/>
            </g>
          </g>
        </g>
      </g>
    </g>
  </g>
</svg>
