<svg xmlns="http://www.w3.org/2000/svg" width="56.678" height="86.906" viewBox="0 0 56.678 86.906"><g transform="translate(-10 -3)"><path d="M38.339,3A28.375,28.375,0,0,0,10,31.339c0,11.653,5.262,17.269,9.092,21.372,2.413,2.59,4.133,4.45,4.133,6.967v9.446H36.45V41.553l-7.026-6.967A1.92,1.92,0,1,1,32.14,31.87l6.2,6.258,6.2-6.258a1.92,1.92,0,0,1,2.716,2.716l-7.026,6.967V69.124H53.453V59.678c0-3.616,2.089-5.808,4.723-8.561,3.793-3.963,8.5-8.871,8.5-19.778A28.375,28.375,0,0,0,38.339,3ZM23.225,72.9V78.57a5.679,5.679,0,0,0,5.668,5.668h2.185a7.486,7.486,0,0,0,14.524,0h2.184a5.679,5.679,0,0,0,5.668-5.668V72.9Z" transform="translate(0 0)" fill="#35c8cb"/></g></svg>