<svg xmlns="http://www.w3.org/2000/svg" viewBox="0 0 1606 501.21"><defs><style>.cls-1{fill:#fff;}.cls-2{fill:red;}</style></defs><title>Asset 1</title><g id="Layer_2" data-name="Layer 2"><g id="Layer_1-2" data-name="Layer 1"><path class="cls-1" d="M118.47,405H73.92v96.24H44V405H0V385.69H118.47Z"/><path class="cls-1" d="M315.28,501.21h-30V451.7H226.88v49.51h-30V385.69h30V432.5h58.44V385.69h30Z"/><path class="cls-1" d="M434.7,501.21h-30V385.69h30Z"/><path class="cls-1" d="M577.68,458.92H553.8v42.29h-30V385.69h54q25.78,0,39.76,9.12t14,25.79q0,11.81-6.45,19.71T605.64,452.9l31.47,47.19v1.12H604.94ZM553.8,439.65H578c7.53,0,13.36-1.54,17.49-4.57a14.79,14.79,0,0,0,6.19-12.58q0-8.17-5.84-12.85T577.87,405H553.8Z"/><path class="cls-1" d="M715.77,501.21V385.69h44.75q19.18,0,34.31,6.86a55.19,55.19,0,0,1,23.63,19.51A50.46,50.46,0,0,1,827,440.83v5.31a50.55,50.55,0,0,1-8.34,28.65q-8.34,12.54-23.53,19.44t-34.26,7Zm30-96.24v77.11h14.48q17.58,0,26.87-9.12t9.49-26.11v-6.11q0-17.6-9.19-26.68T760.52,405Z"/><path class="cls-1" d="M1272,262.06V481.88q0,11.46-2.55,15.38c-1.69,2.63-5,3.95-10,3.95h-24.56V68q0-37.2,10-52.62t34-15.4h66.73q24.08,0,34,15.4t10,52.62V481.88q0,11.46-2.55,15.38t-9.95,3.95h-24.56V82.34q0-20.74-3.48-30.06t-15.51-10.74H1291c-8.34,1-13.61,4.54-15.75,10.74S1272,68.51,1272,82.34v138.2h62.08v22.19c0,7.64-.7,12.79-2.08,15.4s-4.56,3.93-9.51,3.93Z"/><path class="cls-1" d="M1547.17,249.17q14.36,0,18.06-9.3t3.71-31.5v-126q0-22.17-3.71-31.5t-18.06-9.3H1493V481.88q0,11.46-2.55,15.38c-1.7,2.63-5,3.95-10,3.95H1455.9V19.35c0-7.65.85-12.77,2.55-15.4s5-3.95,10-3.95H1562q24.11,0,34.06,15.4T1606,68V222.69q0,37.23-10,52.62T1562,290.71h-38.9c-4.95,0-8.11-1.31-9.51-3.95s-2.08-7.75-2.08-15.39v-22.2Z"/><circle class="cls-2" cx="1183.5" cy="130.27" r="17.5"/><path class="cls-1" d="M912,459.69V0H887.45c-5,0-8.28,1.33-10,4S875,11.7,875,19.35V186.69A427.94,427.94,0,0,0,810,233.92c-38.71,34.25-62.88,68.5-76.68,92.08-39.89-64.17-90.42-95-150.53-103.67-33.82-4.89-70.47-.66-108.95,12.58-30.07,10.35-61.36,20.16-93,41.1a600.14,600.14,0,0,0-75.7,59.62c-25.83-33.55-57.49-49.42-94.38-54.11-88.82-11.29-174,64.76-177.56,68.15L57,374.77c.76-.71,76.67-68.2,149.45-59,32.08,4.07,59.51,20.49,81.53,55.59l27.15,2.75c1.35-1.43,136.85-135.82,262.76-117.61,56.87,8.22,104.3,42.57,141,114l31.55-1.8c.2-.54,21-54.51,82.55-108.94a381.34,381.34,0,0,1,42-32.19V501.21H997.24c5,0,8.26-1.32,10-3.95s2.55-7.74,2.55-15.38V459.69Z"/><path class="cls-1" d="M1168,41.54q7.41,0,9.5-3.95t2.08-15.38V0h-113c-4.94,0-8.27,1.33-10,4S1054,11.7,1054,19.35V501.21h113c4.93,0,8.26-1.32,10-3.95s2.54-7.74,2.54-15.38V459.69h-88.48V152.84c20.86-2.43,43-3.94,66.33-4.35a20.47,20.47,0,0,1,.24-34.58q-34.17.57-66.57,4.1V41.54Z"/></g></g></svg>