<svg xmlns="http://www.w3.org/2000/svg" width="1606" height="501.26" viewBox="0 0 1606 501.26"><g transform="translate(343 -9.98)"><path d="M118.47,405H73.92v96.24H44V405H0V385.69H118.47Zm196.81,96.24h-30V451.7h-58.4v49.51h-30V385.69h30V432.5h58.44V385.69h30Zm119.42,0h-30V385.69h30Zm143-42.29H553.8v42.29h-30V385.69h54q25.78,0,39.76,9.12t14,25.79q0,11.81-6.45,19.71T605.64,452.9l31.47,47.19v1.12H604.94Zm-23.9-19.3H578c7.53,0,13.36-1.54,17.49-4.57a14.79,14.79,0,0,0,6.19-12.58q0-8.17-5.84-12.85T577.87,405H553.8Zm162,61.56V385.69h44.75q19.18,0,34.31,6.86a55.19,55.19,0,0,1,23.63,19.51A50.459,50.459,0,0,1,827,440.83v5.31a50.55,50.55,0,0,1-8.34,28.65q-8.34,12.54-23.53,19.44t-34.26,7Zm30-96.24v77.11h14.48q17.58,0,26.87-9.12t9.49-26.11v-6.11q0-17.6-9.19-26.68T760.52,405ZM1272,262.06V481.88q0,11.46-2.55,15.38c-1.69,2.63-5,3.95-10,3.95h-24.56V68q0-37.2,10-52.62t34-15.4h66.73q24.08,0,34,15.4t10,52.62V481.88q0,11.46-2.55,15.38t-9.95,3.95h-24.56V82.34q0-20.74-3.48-30.06t-15.51-10.74H1291c-8.34,1-13.61,4.54-15.75,10.74S1272,68.51,1272,82.34v138.2h62.08v22.19c0,7.64-.7,12.79-2.08,15.4s-4.56,3.93-9.51,3.93Zm275.2-12.89q14.36,0,18.06-9.3t3.71-31.5v-126q0-22.17-3.71-31.5t-18.06-9.3H1493V481.88q0,11.46-2.55,15.38c-1.7,2.63-5,3.95-10,3.95H1455.9V19.35c0-7.65.85-12.77,2.55-15.4s5-3.95,10-3.95H1562q24.11,0,34.06,15.4T1606,68V222.69q0,37.23-10,52.62t-34,15.4h-38.9c-4.95,0-8.11-1.31-9.51-3.95s-2.08-7.75-2.08-15.39v-22.2Zm-371.7-135.4a17.5,17.5,0,1,0,17.5,17.5,17.5,17.5,0,0,0-17.5-17.5ZM912,459.69V0H887.45c-5,0-8.28,1.33-10,4S875,11.7,875,19.35V186.69a427.939,427.939,0,0,0-65,47.23c-38.71,34.25-62.88,68.5-76.68,92.08-39.89-64.17-90.42-95-150.53-103.67-33.82-4.89-70.47-.66-108.95,12.58-30.07,10.35-61.36,20.16-93,41.1a600.15,600.15,0,0,0-75.7,59.62c-25.83-33.55-57.49-49.42-94.38-54.11-88.82-11.29-174,64.76-177.56,68.15L57,374.77c.76-.71,76.67-68.2,149.45-59,32.08,4.07,59.51,20.49,81.53,55.59l27.15,2.75c1.35-1.43,136.85-135.82,262.76-117.61,56.87,8.22,104.3,42.57,141,114l31.55-1.8c.2-.54,21-54.51,82.55-108.94a381.334,381.334,0,0,1,42-32.19V501.21H997.24c5,0,8.26-1.32,10-3.95s2.55-7.74,2.55-15.38V459.69ZM1168,41.54q7.41,0,9.5-3.95t2.08-15.38V0h-113q-7.41,0-10,4c-1.73,2.67-2.58,7.7-2.58,15.35V501.21h113q7.4,0,10-3.95c1.74-2.63,2.54-7.74,2.54-15.38V459.69h-88.48V152.84c20.86-2.43,43-3.94,66.33-4.35a20.47,20.47,0,0,1,.24-34.58q-34.17.57-66.57,4.1V41.54Z" transform="translate(-343 10)" fill="#fff"/></g></svg>